<?xml version="1.0" standalone="no"?>
<!DOCTYPE svg PUBLIC "-//W3C//DTD SVG 1.1//EN" "http://www.w3.org/Graphics/SVG/1.1/DTD/svg11.dtd" >
<svg xmlns="http://www.w3.org/2000/svg">
<metadata>
<json>
<![CDATA[
{
	"fontFamily": "uxicon",
	"majorVersion": 1,
	"minorVersion": 6,
	"description": "Home Depot Icon Web Font\nFont generated by IcoMoon.",
	"designer": "",
	"fontURL": "https://ux.homedepot.com",
	"version": "Version 1.6",
	"fontId": "uxicon",
	"psName": "uxicon",
	"subFamily": "Regular",
	"fullName": "uxicon"
}
]]>
</json>
</metadata>
<defs>
<font id="uxicon" horiz-adv-x="1024">
<font-face units-per-em="1024" ascent="860.16" descent="-163.84" />
<missing-glyph horiz-adv-x="1024" />
<glyph unicode="&#x20;" horiz-adv-x="512" d="" />
<glyph unicode="&#xe900;" glyph-name="ac_unit" data-tags="ac_unit" d="M938.667 384h-179.2l136.533 136.533-59.733 59.733-196.267-196.267h-85.333v85.333l200.533 200.533-59.733 59.733-140.8-140.8v179.2h-85.333v-179.2l-136.533 140.8-64-59.733 200.533-200.533v-85.333h-85.333l-200.533 200.533-59.733-64 140.8-136.533h-179.2v-85.333h179.2l-136.533-136.533 59.733-59.733 196.267 196.267h85.333v-85.333l-200.533-200.533 59.733-59.733 136.533 136.533v-174.933h85.333v179.2l136.533-136.533 59.733 59.733-192 196.267v85.333h85.333l200.533-200.533 59.733 59.733-140.8 140.8h179.2v85.333z" />
<glyph unicode="&#xe901;" glyph-name="accessibility" data-tags="accessibility" horiz-adv-x="922" d="M461 768c46.933 0 85.333-38.4 85.333-85.333s-38.4-85.333-85.333-85.333-85.333 38.4-85.333 85.333c0 0 0 0 0 0 0 46.933 38.4 85.333 85.333 85.333zM845 469.333h-256v-554.667h-85.333v256h-85.333v-256h-85.333v554.667h-256v85.333h768v-85.333z" />
<glyph unicode="&#xe902;" glyph-name="accessible" data-tags="accessible" d="M512.001 597.333c46.933 0 85.333 38.4 85.333 85.333s-38.4 85.333-85.333 85.333-85.333-38.4-85.333-85.333 38.4-85.333 85.333-85.333zM810.668 298.666v85.333c-68.267 0-132.267 34.133-174.933 76.8l-55.467 59.733c-8.533 8.533-17.067 12.8-25.6 17.067v0 0c-17.067 12.8-34.133 17.067-51.2 17.067-46.933-4.267-76.8-46.933-76.8-89.6v-251.733c0-46.933 38.4-85.333 85.333-85.333h213.333v-213.333h85.333v234.667c0 46.933-38.4 85.333-85.333 85.333h-128v145.067c55.467-42.667 136.533-81.067 213.333-81.067zM546.134 85.333c-17.067-51.2-64-85.333-119.467-85.333-72.533 0-128 55.467-128 128 0 55.467 34.133 102.4 85.333 119.467v89.6c-93.867-17.067-170.667-102.4-170.667-209.067 0-119.467 98.133-213.333 213.333-213.333 102.4 0 187.733 76.8 209.067 170.667h-89.6z" />
<glyph unicode="&#xe903;" glyph-name="account" data-tags="account" d="M512 768c-234.667 0-426.667-192-426.667-426.667s192-426.667 426.667-426.667 426.667 192 426.667 426.667-192 426.667-426.667 426.667v0zM512 640c72.533 0 128-55.467 128-128s-55.467-128-128-128-128 55.467-128 128 55.467 128 128 128v0zM512 34.133c-106.667 0-200.533 51.2-256 136.533 0 85.333 170.667 132.267 256 132.267s256-46.933 256-132.267c-55.467-81.067-149.333-136.533-256-136.533v0z" />
<glyph unicode="&#xe904;" glyph-name="add_cart" data-tags="add_cart" d="M507.733 443.733h85.333v119.467h128v81.067h-128v123.733h-85.333v-123.733h-128v-81.067h128v-119.467zM337.067 76.8c-46.933 0-85.333-38.4-85.333-81.067 0-46.933 38.4-81.067 85.333-81.067s85.333 38.4 85.333 81.067c0 42.667-38.4 81.067-85.333 81.067v0zM763.733 76.8c-46.933 0-85.333-38.4-85.333-81.067 0-46.933 38.4-81.067 85.333-81.067s85.333 38.4 85.333 81.067c0 42.667-38.4 81.067-85.333 81.067v0zM345.6 204.8v8.533l38.4 64h315.733c34.133 0 59.733 17.067 72.533 42.667l166.4 285.867-72.533 38.4-46.933-81.067-115.2-204.8h-298.667l-4.267 12.8-102.4 192-76.8 162.133h-136.533v-81.067h85.333l153.6-311.467-59.733-98.133c-8.533-8.533-12.8-21.333-12.8-38.4 0-46.933 38.4-81.067 85.333-81.067h512v81.067h-494.933c-4.267 0-8.533 4.267-8.533 8.533v0z" />
<glyph unicode="&#xe905;" glyph-name="add_folder" data-tags="add_folder" d="M853.333 597.333h-341.333l-85.333 85.333h-256c-46.933 0-85.333-38.4-85.333-85.333v-512c0-46.933 38.4-85.333 85.333-85.333h682.667c46.933 0 85.333 38.4 85.333 85.333v426.667c0 46.933-38.4 85.333-85.333 85.333v0zM810.667 256h-128v-128h-85.333v128h-128v85.333h128v128h85.333v-128h128v-85.333z" />
<glyph unicode="&#xe906;" glyph-name="add_location" data-tags="add_location" d="M512 768c-166.4 0-298.667-132.267-298.667-298.667 0-221.867 298.667-554.667 298.667-554.667s298.667 332.8 298.667 554.667c0 166.4-132.267 298.667-298.667 298.667v0zM682.667 426.666h-128v-128h-85.333v128h-128v85.333h128v128h85.333v-128h128v-85.333z" />
<glyph unicode="&#xe907;" glyph-name="add_photo" data-tags="add_photo" d="M196.267 614.4v110.933h76.8v-110.933h110.933v-72.533h-110.933v-110.933h-76.8v110.933h-110.933v72.533h110.933zM307.2 396.8v110.933h110.933v106.667h260.267l68.267-72.533h119.467c38.4 0 72.533-29.867 72.533-72.533v-439.467c0-38.4-34.133-72.533-76.8-72.533h-588.8c-38.4 0-76.8 34.133-76.8 72.533v366.933h110.933zM567.467 64c102.4 0 187.733 81.067 187.733 183.467s-81.067 183.467-187.733 183.467-183.467-81.067-183.467-183.467 81.067-183.467 183.467-183.467v0zM448 247.466c0-64 55.467-119.467 119.467-119.467s119.467 55.467 119.467 119.467-55.467 119.467-119.467 119.467-119.467-55.467-119.467-119.467v0z" />
<glyph unicode="&#xe908;" glyph-name="add_to_photos" data-tags="add_to_photos" d="M170.667 597.333h-85.333v-597.333c0-46.933 38.4-85.333 85.333-85.333h597.333v85.333h-597.333v597.333zM853.333 768h-512c-46.933 0-85.333-38.4-85.333-85.333v-512c0-46.933 38.4-85.333 85.333-85.333h512c46.933 0 85.333 38.4 85.333 85.333v512c0 46.933-38.4 85.333-85.333 85.333v0zM810.667 384h-170.667v-170.667h-85.333v170.667h-170.667v85.333h170.667v170.667h85.333v-170.667h170.667v-85.333z" />
<glyph unicode="&#xe909;" glyph-name="amex_card" data-tags="amex_card" d="M128.001 416h34.133l-17.067 38.4-17.067-38.4zM358.401 228.267l29.867 25.6-25.6 29.867h-59.733v-17.067h51.2v-21.333h-51.2v-21.333h55.467zM418.134 253.867l38.4-38.4v76.8l-38.4-38.4zM524.801 270.933c0 8.533-4.267 12.8-12.8 12.8h-29.867v-25.6h29.867c8.533 0 12.8 4.267 12.8 12.8v0zM631.468 270.933c0 8.533-4.267 8.533-17.067 8.533h-29.867v-21.333h29.867c12.8 4.267 17.067 8.533 17.067 12.8v0zM529.068 441.6c0 8.533-4.267 8.533-17.067 8.533h-29.867v-21.333h29.867c12.8 0 17.067 4.267 17.067 12.8v0zM699.734 416h34.133l-17.067 38.4-17.067-38.4zM345.601 471.467v-98.133h-25.6v76.8l-34.133-76.8h-21.333l-34.133 76.8v-76.8h-51.2l-8.533 21.333h-46.933l-8.533-21.333h-29.867l42.667 98.133h38.4l42.667-93.867v93.867h38.4l29.867-68.267 29.867 68.267h38.4zM550.401 270.933c0-4.267 0-8.533 0-12.8s-4.267-4.267-4.267-8.533-4.267-4.267-8.533-4.267-4.267-4.267-8.533-4.267c-4.267 0-8.533 0-12.8 0h-34.133v-34.133h-46.933l-29.867 34.133-29.867-34.133h-98.133v98.133h98.133l29.867-34.133 29.867 34.133h76.8c25.6 0 38.4-12.8 38.4-34.133v0zM443.734 394.667v-21.333h-81.067v98.133h81.067v-21.333h-55.467v-17.067h55.467v-21.333h-55.467v-21.333l55.467 4.267zM938.668 194.133v-81.067c0-12.8-4.267-25.6-12.8-34.133s-21.333-12.8-34.133-12.8h-755.2c-12.8 0-25.6 4.267-34.133 12.8-12.8 4.267-17.067 17.067-17.067 29.867v243.2h42.667l8.533 21.333h21.333l8.533-21.333h81.067v17.067l8.533-17.067h42.667l8.533 17.067v-17.067h200.533v34.133h4.267c4.267 0 4.267 0 4.267-4.267v-29.867h102.4v8.533c4.267-4.267 12.8-4.267 21.333-8.533 8.533 0 12.8 0 21.333-4.267h42.667l8.533 21.333h12.8l8.533-21.333h85.333v21.333l12.8-21.333h68.267v145.067h-68.267v-17.067l-8.533 17.067h-68.267v-17.067l-8.533 17.067h-93.867c-12.8 0-25.6-4.267-38.4-8.533v8.533h-64v-8.533c-8.533 4.267-17.067 8.533-25.6 8.533h-234.667l-17.067-38.4-12.8 38.4h-72.533v-17.067l-8.533 17.067h-64l-29.867-64v140.8c0 12.8 4.267 25.6 17.067 34.133 8.533 8.533 21.333 12.8 34.133 12.8h755.2c12.8 0 25.6-4.267 34.133-12.8s12.8-21.333 12.8-34.133v-243.2h-42.667c-8.533 0-21.333-4.267-29.867-8.533v8.533h-64c-8.533 0-21.333 0-29.867-8.533v8.533h-115.2v-8.533c-8.533 4.267-21.333 8.533-34.133 8.533h-76.8v-8.533c-8.533 8.533-21.333 8.533-34.133 8.533h-85.333l-21.333-21.333-21.333 17.067h-128v-136.533h128l21.333 21.333 17.067-21.333h76.8v34.133h8.533c12.8 0 21.333 0 34.133 4.267v-38.4h64v34.133h4.267c0 0 4.267 0 4.267 0s0 0 0-4.267v-29.867h196.267c12.8 0 21.333 4.267 34.133 8.533v-8.533h64c8.533 0 17.067 4.267 29.867 8.533zM657.068 279.467c0-4.267 0-12.8-4.267-17.067s-8.533-8.533-12.8-8.533c4.267 0 8.533-4.267 12.8-8.533s4.267-12.8 4.267-17.067v-21.333h-25.6v17.067c0 4.267 0 12.8-4.267 17.067s-12.8 4.267-17.067 4.267h-25.6v-34.133h-25.6v98.133h59.733c8.533 0 21.333 0 29.867-4.267 4.267-8.533 8.533-17.067 8.533-25.6v0zM554.668 445.867c0-4.267 0-12.8-4.267-17.067s-8.533-8.533-12.8-8.533c4.267 0 8.533-4.267 12.8-8.533s4.267-12.8 4.267-17.067v-21.333h-25.6c0 4.267 0 4.267 0 8.533s0 8.533 0 8.533 0 4.267 0 8.533 0 4.267-4.267 4.267c0 0-4.267 4.267-4.267 4.267-4.267 0-8.533 0-12.8 0h-25.6v-34.133h-25.6v98.133h55.467c8.533 0 21.333 0 29.867-4.267s12.8-12.8 12.8-21.333v0zM750.934 228.267v-21.333h-81.067v98.133h81.067v-21.333h-55.467v-17.067h55.467v-21.333h-55.467v-21.333h55.467zM593.068 471.467v-98.133h-25.6v98.133h25.6zM849.068 236.8c0-21.333-12.8-29.867-38.4-29.867h-46.933v21.333h46.933c8.533 0 12.8 4.267 12.8 8.533s-4.267 8.533-4.267 8.533c-4.267 0-8.533 0-17.067 0-4.267 0-12.8 0-17.067 0s-12.8 4.267-17.067 8.533c-4.267 4.267-8.533 12.8-4.267 21.333 0 8.533 4.267 17.067 8.533 21.333 8.533 4.267 17.067 8.533 25.6 8.533h46.933v-21.333h-42.667c-8.533 0-12.8-4.267-12.8-8.533s4.267-8.533 4.267-8.533c4.267 0 8.533 0 17.067 0 4.267 0 12.8 0 17.067 0s12.8-4.267 17.067-8.533c4.267-8.533 4.267-17.067 4.267-21.333v0zM938.668 253.867v-38.4c-8.533-8.533-21.333-12.8-34.133-12.8h-46.933v21.333h46.933c8.533 0 12.8 4.267 12.8 8.533s0 4.267-4.267 8.533c-4.267 0-8.533 4.267-12.8 0-4.267 0-8.533 0-12.8 0s-8.533 0-12.8 4.267c-4.267 0-8.533 4.267-12.8 8.533s-4.267 12.8-4.267 17.067c0 8.533 4.267 17.067 8.533 21.333 8.533 4.267 17.067 8.533 25.6 8.533h46.933v-21.333h-42.667c-8.533 0-12.8-4.267-12.8-8.533s4.267-8.533 8.533-8.533h25.6c8.533 0 17.067-4.267 21.333-8.533v0zM878.934 471.467v-98.133h-34.133l-46.933 72.533v-72.533h-46.933l-8.533 21.333h-51.2l-8.533-21.333h-25.6c-25.6-4.267-46.933 12.8-46.933 38.4 0 4.267 0 8.533 0 12.8 0 34.133 17.067 51.2 51.2 51.2h21.333v-21.333h-29.867c-4.267 0-4.267 0-8.533-4.267l-4.267-4.267c-4.267-4.267-4.267-4.267-4.267-8.533s0-8.533 0-12.8 0-12.8 4.267-21.333c4.267-4.267 12.8-8.533 17.067-8.533h8.533l34.133 76.8h34.133l38.4-93.867v93.867h38.4l42.667-68.267v68.267h25.6z" />
<glyph unicode="&#xe90a;" glyph-name="applications" data-tags="applications" d="M85.333 554.666h213.333v213.333h-213.333v-213.333zM405.333-85.334h213.333v213.333h-213.333v-213.333zM85.333-85.334h213.333v213.333h-213.333v-213.333zM85.333 234.666h213.333v213.333h-213.333v-213.333zM405.333 234.666h213.333v213.333h-213.333v-213.333zM725.333 768v-213.333h213.333v213.333h-213.333zM405.333 554.666h213.333v213.333h-213.333v-213.333zM725.333 234.666h213.333v213.333h-213.333v-213.333zM725.333-85.334h213.333v213.333h-213.333v-213.333z" />
<glyph unicode="&#xe90b;" glyph-name="apron" data-tags="apron" d="M893.866 209.068v0c0 59.733-17.067 110.933-85.333 123.733v0 0c-4.267 0-8.533 4.267-12.8 4.267-17.067 4.267-55.467 17.067-76.8 59.733-12.8 21.333-25.6 51.2-34.133 89.6l-34.133 157.867c0 0 0 0 0 4.267v8.533c-12.8 64-72.533 110.933-136.533 110.933s-123.733-46.933-140.8-110.933v0-4.267c0 0 0 0 0-4.267l-17.067-76.8c0 0 0 0 0-4.267l-12.8-64c-12.8-38.4-21.333-68.267-34.133-93.867-25.6-51.2-59.733-68.267-81.067-72.533-4.267 0-8.533-4.267-12.8-4.267v0 0c-68.267-17.067-85.333-68.267-85.333-123.733v-4.267c0-42.667-34.133-46.933-46.933-51.2v-68.267c46.933 0 119.467 34.133 123.733 123.733v8.533c0 4.267 0 4.267 0 4.267 0 8.533 8.533 34.133 59.733 38.4l-4.267-345.6h507.733l-8.533 345.6c46.933-4.267 55.467-25.6 55.467-38.4 0-4.267 0-4.267 0-4.267v0-8.533c0-89.6 72.533-123.733 123.733-123.733v76.8c-12.8 0-46.933 4.267-46.933 46.933v0zM420.266 477.868l21.333 153.6c4.267 34.133 38.4 59.733 72.533 59.733 38.4 0 68.267-25.6 72.533-59.733v0l21.333-153.6h-187.733z" />
<glyph unicode="&#xe90c;" glyph-name="arrow_down" data-tags="arrow_down" d="M938.667 341.333l-76.8 76.8-298.667-298.667v648.533h-102.4v-648.533l-298.667 298.667-76.8-76.8 426.667-426.667z" />
<glyph unicode="&#xe90d;" glyph-name="arrow_left" data-tags="arrow_left" d="M290.133 392.533l298.667 298.667-76.8 76.8-426.667-426.667 426.667-426.667 76.8 76.8-298.667 298.667h648.533v102.4z" />
<glyph unicode="&#xe90e;" glyph-name="arrow_right" data-tags="arrow_right" d="M512 768l-76.8-76.8 298.667-298.667h-648.533v-102.4h648.533l-298.667-298.667 76.8-76.8 426.667 426.667z" />
<glyph unicode="&#xe90f;" glyph-name="arrow_sub_left" data-tags="arrow_sub_left" d="M507.733 443.733l-183.467-179.2h469.333v503.467h102.4v-601.6h-571.733l183.467-179.2-72.533-72.533-307.2 302.933 307.2 298.667z" />
<glyph unicode="&#xe910;" glyph-name="arrow_sub_right" data-tags="arrow_sub_right" d="M896 217.6l-307.2-302.933-72.533 72.533 183.467 179.2h-571.733v601.6h102.4v-503.467h469.333l-183.467 179.2 72.533 72.533z" />
<glyph unicode="&#xe911;" glyph-name="arrow_up" data-tags="arrow_up" d="M85.333 341.333l76.8-76.8 298.667 298.667v-648.533h102.4v648.533l298.667-298.667 76.8 76.8-426.667 426.667z" />
<glyph unicode="&#xe912;" glyph-name="attach_file" data-tags="attach_file" d="M665.599 571.733v-443.733c0-85.333-68.267-153.6-153.6-153.6s-153.6 68.267-153.6 153.6v486.4c0 51.2 42.667 93.867 98.133 93.867s93.867-42.667 93.867-93.867v-409.6c0-21.333-17.067-38.4-38.4-38.4s-38.4 17.067-38.4 38.4v366.933h-64v-366.933c0-51.2 42.667-93.867 93.867-93.867s93.867 42.667 93.867 93.867v409.6c4.267 85.333-64 153.6-149.333 153.6s-149.333-68.267-149.333-153.6v-486.4c0-119.467 93.867-213.333 213.333-213.333s213.333 93.867 213.333 213.333v443.733h-59.733z" />
<glyph unicode="&#xe913;" glyph-name="ban" data-tags="ban" d="M512 768c-234.667 0-426.667-192-426.667-426.667s192-426.667 426.667-426.667 426.667 192 426.667 426.667-192 426.667-426.667 426.667zM853.333 341.333c0-76.8-25.6-149.333-72.533-209.067l-477.867 477.867c149.333 115.2 362.667 89.6 477.867-59.733 46.933-59.733 72.533-132.267 72.533-209.067zM170.667 341.333c0 76.8 25.6 149.333 72.533 209.067l477.867-477.867c-149.333-115.2-362.667-89.6-477.867 59.733-46.933 59.733-72.533 132.267-72.533 209.067z" />
<glyph unicode="&#xe914;" glyph-name="bank" data-tags="bank" horiz-adv-x="926" d="M153.667 401.066v-285.867h123.733v285.867h-123.733zM401.134 401.066v-285.867h123.733v285.867h-123.733zM76.867-85.334h772.267v123.733h-772.267v-123.733zM644.334 401.066v-285.867h123.733v285.867h-123.733zM460.867 768l-384-204.8v-81.067h772.267v81.067l-388.267 204.8z" />
<glyph unicode="&#xe915;" glyph-name="bar_chart" data-tags="bar_chart" d="M85.333 136.533h170.667v-221.867h-170.667v221.867zM315.733 465.066h166.4v-550.4h-166.4v550.4zM541.867 768h166.4v-853.333h-166.4v853.333zM772.267 494.933h166.4v-580.267h-166.4v580.267z" />
<glyph unicode="&#xe916;" glyph-name="barcode" data-tags="barcode" d="M115.2 0h-29.867v682.667h29.867v-682.667zM145.067 0h-12.8v682.667h17.067l-4.267-682.667zM187.733 0h-12.8v682.667h17.067l-4.267-682.667zM264.533 0h-12.8v682.667h17.067l-4.267-682.667zM337.067 0h-29.867v682.667h29.867v-682.667zM401.067 0h-17.067v682.667h17.067v-682.667zM430.933 0h-17.067v682.667h17.067v-682.667zM460.8 0h-17.067v682.667h17.067v-682.667zM533.333 0h-29.867v682.667h29.867v-682.667zM605.867 0h-29.867v682.667h29.867v-682.667zM669.867 0h-29.867v682.667h29.867v-682.667zM729.6 0h-29.867v682.667h29.867v-682.667zM772.267 0h-29.867v682.667h29.867v-682.667zM861.867 0h-46.933v682.667h46.933v-682.667zM891.733 0h-17.067v682.667h17.067v-682.667zM938.667 0h-29.867v682.667h29.867v-682.667z" />
<glyph unicode="&#xe917;" glyph-name="bat" data-tags="bat" d="M797.868 548.265c-98.133-17.067-183.467-76.8-221.867-166.4l-59.733 81.067-55.467-85.333c-51.2 98.133-128 157.867-226.133 170.667-46.933 8.533-98.133 4.267-145.067-21.333 93.867-12.8 119.467-72.533 102.4-128 72.533 21.333 149.333-51.2 123.733-136.533 25.6 8.533 51.2 12.8 72.533 8.533 64-8.533 106.667-72.533 123.733-145.067 17.067 76.8 59.733 136.533 123.733 145.067 25.6 4.267 51.2 0 72.533-8.533-25.6 85.333 51.2 157.867 123.733 136.533-17.067 59.733 8.533 115.2 102.4 128-38.4 25.6-89.6 29.867-136.533 21.333z" />
<glyph unicode="&#xe918;" glyph-name="battery_alert" data-tags="battery_alert" d="M667.733 682.667h-72.533v85.333h-170.667v-85.333h-72.533c-29.867 0-55.467-25.6-55.467-55.467v-652.8c0-34.133 25.6-59.733 55.467-59.733h315.733c34.133 0 55.467 25.6 55.467 55.467v657.067c4.267 29.867-25.6 55.467-55.467 55.467v0zM552.533 85.334h-85.333v85.333h85.333v-85.333zM552.533 256.001h-85.333v213.333h85.333v-213.333z" />
<glyph unicode="&#xe919;" glyph-name="battery_charging" data-tags="battery_charging" d="M669.867 682.667h-72.533v85.333h-170.667v-85.333h-72.533c-29.867 0-55.467-25.6-55.467-55.467v-652.8c0-34.133 25.6-59.733 55.467-59.733h315.733c34.133 0 55.467 25.6 55.467 55.467v657.067c0 29.867-25.6 55.467-55.467 55.467v0zM469.333 0.001v234.667h-85.333l170.667 320v-234.667h85.333l-170.667-320z" />
<glyph unicode="&#xe91a;" glyph-name="battery_full" data-tags="battery_full" d="M667.733 682.666h-72.533v85.333h-170.667v-85.333h-72.533c-29.867 0-55.467-25.6-55.467-55.467v-652.8c0-34.133 25.6-59.733 55.467-59.733h315.733c34.133 0 55.467 25.6 55.467 55.467v657.067c4.267 29.867-25.6 55.467-55.467 55.467v0z" />
<glyph unicode="&#xe91b;" glyph-name="battery_unknown" data-tags="battery_unknown" d="M667.733 682.666h-72.533v85.333h-170.667v-85.333h-72.533c-29.867 0-55.467-25.6-55.467-55.467v-652.8c0-34.133 25.6-59.733 55.467-59.733h315.733c34.133 0 55.467 25.6 55.467 55.467v657.067c4.267 29.867-25.6 55.467-55.467 55.467v0zM552.533 89.6h-81.067v81.067h81.067v-81.067zM612.266 311.466c0 0-17.067-17.067-29.867-29.867-21.333-21.333-34.133-46.933-34.133-68.267h-68.267c0 34.133 17.067 64 38.4 85.333l38.4 38.4c12.8 8.533 17.067 25.6 17.067 46.933 0 34.133-29.867 64-64 64s-64-29.867-64-64h-64c0 72.533 55.467 128 128 128s128-55.467 128-128c0-29.867-8.533-51.2-25.6-72.533v0z" />
<glyph unicode="&#xe91c;" glyph-name="bell_active" data-tags="bell_active" d="M324.267 693.332l-64 64c-106.667-81.067-170.667-209.067-174.933-341.333h85.333c4.267 110.933 59.733 213.333 153.6 277.333zM853.333 415.999h85.333c-4.267 132.267-68.267 260.267-174.933 341.333l-59.733-64c89.6-64 145.067-166.4 149.333-277.333zM768 390.399c0 132.267-68.267 247.467-192 277.333v29.867c4.267 34.133-25.6 64-59.733 68.267s-64-25.6-68.267-59.733c0-4.267 0-4.267 0-8.533v-29.867c-123.733-29.867-192-140.8-192-277.333v-217.6l-85.333-85.333v-42.667h682.667v42.667l-85.333 85.333v217.6zM512-87.468c4.267 0 12.8 0 17.067 0 29.867 4.267 51.2 25.6 64 51.2 4.267 12.8 4.267 25.6 4.267 34.133h-170.667c0-46.933 38.4-85.333 85.333-85.333z" />
<glyph unicode="&#xe91d;" glyph-name="bell_off" data-tags="bell_off" d="M832 59.733l-520.533 550.4-106.667 115.2-55.467-55.467 119.467-123.733c-21.333-46.933-34.133-98.133-34.133-149.333v-217.6l-85.333-89.6v-42.667h584.533l85.333-85.333 55.467 55.467-42.667 42.667zM490.667-85.334c46.933 0 85.333 38.4 85.333 85.333 0 0 0 0 0 0h-170.667c0-46.933 38.4-85.333 85.333-85.333 0 0 0 0 0 0zM746.667 234.666v157.867c0 136.533-68.267 247.467-192 277.333v34.133c0 34.133-29.867 64-64 64s-64-29.867-64-64v-29.867c-4.267 0-12.8-4.267-17.067-4.267s-8.533-4.267-12.8-4.267v0 0c-12.8-8.533-21.333-12.8-29.867-17.067v0l379.733-413.867z" />
<glyph unicode="&#xe91e;" glyph-name="bell" data-tags="bell" horiz-adv-x="840" d="M420.002-85.334c51.2 0 89.6 38.4 89.6 89.6h-179.2c0-51.2 38.4-89.6 89.6-89.6zM693.069 179.2v217.6c0 132.267-72.533 247.467-204.8 277.333v29.867c0 34.133-29.867 64-68.267 64s-68.267-29.867-68.267-64v-29.867c-128-29.867-204.8-140.8-204.8-277.333v-217.6l-89.6-85.333v-42.667h725.333v42.667l-89.6 85.333z" />
<glyph unicode="&#xe91f;" glyph-name="benefits" data-tags="benefits" horiz-adv-x="1035" d="M944.165 358.399c0 25.6-21.333 51.2-46.933 51.2v0c-8.533 0-17.067-4.267-25.6-8.533v0l-204.8-115.2h-128c-12.8 0-21.333 8.533-29.867 21.333-4.267 8.533-4.267 12.8-4.267 21.333 0 17.067 12.8 34.133 29.867 38.4h119.467c25.6 0 46.933 21.333 51.2 46.933 0 0 0 0 0 4.267 0 8.533-4.267 17.067-8.533 25.6-12.8 12.8-29.867 21.333-46.933 21.333v0 0h-307.2c-12.8 0-25.6-4.267-38.4-17.067v0l-136.533-128-76.8-72.533v-337.067l76.8 64 213.333 183.467c17.067 17.067 38.4 25.6 59.733 25.6h247.467l230.4 128c17.067 8.533 25.6 25.6 25.6 46.933zM449.231 537.599c-4.267 8.533-4.267 17.067-4.267 29.867h38.4c0-17.067 0-17.067 17.067-17.067 4.267 0 12.8 0 17.067 4.267s4.267 8.533 4.267 12.8c0 0 0 0 0 4.267s0 12.8-25.6 17.067c-17.067 0-34.133 12.8-42.667 25.6-8.533 8.533-8.533 21.333-8.533 34.133s4.267 29.867 17.067 38.4c4.267 4.267 12.8 8.533 21.333 12.8v12.8h42.667v-21.333c8.533-4.267 17.067-8.533 21.333-12.8 8.533-12.8 12.8-25.6 12.8-38.4v-4.267h-38.4v4.267c0 4.267 0 8.533-4.267 8.533-4.267 4.267-8.533 4.267-17.067 4.267v0c-4.267 0-12.8 0-17.067-4.267s-4.267-8.533-4.267-12.8v0c0 0 0-12.8 21.333-17.067 59.733-8.533 59.733-42.667 59.733-51.2v0c0-8.533-4.267-17.067-8.533-25.6h149.333c12.8 110.933-68.267 213.333-179.2 221.867s-204.8-72.533-217.6-183.467c0-12.8 0-29.867 0-42.667h145.067z" />
<glyph unicode="&#xe920;" glyph-name="bitcoin" data-tags="bitcoin" horiz-adv-x="755" d="M644.167 503.467c12.8-55.467-17.067-110.933-68.267-132.267 38.4-8.533 68.267-25.6 93.867-51.2 21.333-34.133 29.867-72.533 25.6-110.933 0-21.333-8.533-42.667-17.067-64-8.533-17.067-21.333-29.867-34.133-42.667-17.067-12.8-34.133-21.333-51.2-29.867-21.333-8.533-42.667-12.8-64-17.067-25.6-4.267-51.2-8.533-76.8-8.533v-132.267h-81.067v128h-64v-128h-85.333v132.267h-166.4l17.067 93.867h59.733c12.8 0 29.867 8.533 29.867 21.333 0 0 0 4.267 0 4.267v354.133c-4.267 21.333-25.6 38.4-46.933 34.133h-59.733v85.333h162.133v128h81.067v-128h64v128h81.067v-128c25.6 0 51.2-4.267 72.533-12.8 21.333-4.267 42.667-12.8 59.733-21.333s34.133-21.333 42.667-38.4c17.067-21.333 25.6-42.667 25.6-64v0zM533.234 226.134c0 12.8-4.267 21.333-8.533 34.133-4.267 8.533-12.8 17.067-21.333 21.333-8.533 8.533-21.333 12.8-29.867 17.067-12.8 4.267-21.333 8.533-34.133 8.533-12.8 4.267-25.6 4.267-38.4 4.267-17.067 0-29.867 4.267-38.4 4.267h-59.733v-174.933h72.533c12.8 0 21.333 0 29.867 0s17.067 4.267 29.867 4.267c8.533 0 21.333 4.267 29.867 8.533s17.067 8.533 25.6 8.533c17.067 8.533 25.6 21.333 34.133 34.133 4.267 12.8 4.267 21.333 8.533 29.867v0zM494.834 469.334c0 12.8 0 21.333-8.533 29.867-4.267 8.533-8.533 17.067-17.067 21.333s-17.067 12.8-25.6 12.8c-8.533 4.267-21.333 8.533-29.867 8.533-12.8 0-21.333 4.267-34.133 4.267s-21.333 0-29.867 0h-51.2v-157.867h68.267c8.533 0 21.333 0 29.867 4.267l25.6 4.267c8.533 0 17.067 4.267 25.6 8.533s12.8 8.533 21.333 12.8c4.267 4.267 12.8 12.8 12.8 21.333 12.8 12.8 12.8 21.333 12.8 29.867v0z" />
<glyph unicode="&#xe921;" glyph-name="blender" data-tags="blender" horiz-adv-x="798" d="M57.668 768h558.933v-76.8h-558.933v76.8zM335.001-25.6c-25.6 0-46.933 21.333-46.933 46.933s21.333 46.933 46.933 46.933c25.6 0 46.933-21.333 46.933-46.933 4.267-25.6-21.333-46.933-46.933-46.933 0 0 0 0 0 0zM492.868 128h-320c-38.4 0-72.533-29.867-72.533-68.267v-145.067h460.8v145.067c0 38.4-29.867 68.267-68.267 68.267zM663.534 375.466h-81.067l17.067 119.467h68.267v-119.467zM612.334 631.466h-76.8l-46.933-366.933h-307.2l-34.133 290.133-12.8 76.8h-76.8l55.467-443.733h443.733l17.067 123.733v-12.8h166.4v273.067h-132.267l4.267 59.733z" />
<glyph unicode="&#xe922;" glyph-name="bluetooth_connected" data-tags="bluetooth_connected" d="M298.667 341.332l-85.333 85.333-85.333-85.333 85.333-85.333 85.333 85.333zM755.2 524.799l-243.2 243.2h-42.667v-324.267l-196.267 196.267-59.733-59.733 238.933-238.933-238.933-238.933 59.733-59.733 196.267 196.267v-324.267h42.667l243.2 243.2-183.467 183.467 183.467 183.467zM554.667 605.865l81.067-81.067-81.067-81.067v162.133zM635.733 157.865l-81.067-81.067v162.133l81.067-81.067zM810.667 426.665l-85.333-85.333 85.333-85.333 85.333 85.333-85.333 85.333z" />
<glyph unicode="&#xe923;" glyph-name="bluetooth_disabled" data-tags="bluetooth_disabled" d="M554.667 605.866l81.067-81.067-68.267-68.267 59.733-59.733 128 128-243.2 243.2h-42.667v-213.333l85.333-85.333v136.533zM230.4 682.666l-59.733-59.733 281.6-281.6-238.933-238.933 59.733-59.733 196.267 196.267v-324.267h42.667l183.467 183.467 98.133-98.133 59.733 59.733-622.933 622.933zM554.667 76.8v162.133l81.067-81.067-81.067-81.067z" />
<glyph unicode="&#xe924;" glyph-name="bluetooth_search" data-tags="bluetooth_search" horiz-adv-x="922" d="M544.201 341.332l98.133-98.133c12.8 29.867 17.067 64 17.067 98.133s-4.267 68.267-17.067 98.133l-98.133-98.133zM770.334 567.465l-51.2-55.467c25.6-55.467 42.667-110.933 42.667-170.667s-12.8-119.467-42.667-170.667l51.2-51.2c85.333 136.533 85.333 311.467 0 448v0zM608.201 524.799l-243.2 243.2h-42.667v-324.267l-196.267 196.267-59.733-59.733 238.933-238.933-238.933-238.933 59.733-59.733 196.267 196.267v-324.267h42.667l243.2 243.2-183.467 183.467 183.467 183.467zM407.667 605.865l81.067-81.067-81.067-81.067c0 0 0 162.133 0 162.133zM488.734 157.865l-81.067-81.067v162.133l81.067-81.067z" />
<glyph unicode="&#xe925;" glyph-name="bluetooth" data-tags="bluetooth" horiz-adv-x="651" d="M581.501 524.799l-230.4 243.2h-38.4v-324.267l-187.733 196.267-55.467-59.733 226.133-238.933-226.133-238.933 55.467-59.733 183.467 196.267v-324.267h38.4l230.4 243.2-170.667 183.467c0 0 174.933 183.467 174.933 183.467zM393.768 605.865l76.8-81.067-76.8-81.067v162.133zM466.301 157.865l-76.8-81.067v162.133l76.8-81.067z" />
<glyph unicode="&#xe926;" glyph-name="bolt" data-tags="bolt" horiz-adv-x="552" d="M544 583.893c4.231-4.179 6.851-9.981 6.851-16.394 0-3.955-0.996-7.676-2.752-10.928l-331.46-711.878c-4.505-9.164-13.773-15.36-24.488-15.36-0.053 0-0.107 0-0.16 0h-8.632c-6.693 1.842-12.186 6.086-15.614 11.724-2.363 3.67-3.729 8.014-3.729 12.676 0 2.134 0.286 4.2 0.822 6.164l121.242 497.116-250.88-61.12h-7.36c-0.242-0.007-0.527-0.012-0.812-0.012-7.028 0-13.462 2.546-18.429 6.765-5.559 4.215-9.138 10.875-9.138 18.371 0 1.756 0.196 3.466 0.569 5.11l124.451 507.366c1.705 5.819 5.202 10.664 9.844 14.027 4.718 3.646 10.623 5.813 17.033 5.813 0.001 0 0.002 0 0.003 0h200.64c0.263 0.009 0.572 0.014 0.883 0.014 7.375 0 14.064-2.935 18.963-7.7 4.916-4.461 7.995-10.884 7.995-18.026 0-0.073 0-0.146-0.001-0.219-0.195-4.13-1.358-7.961-3.265-11.314l-105.215-284.675 243.84 60.16h7.36c8.227-0.111 15.604-3.655 20.782-9.261z" />
<glyph unicode="&#xe927;" glyph-name="bopis" data-tags="bopis" horiz-adv-x="751" d="M473.635 413.866h-93.867l170.667-72.533v136.533h-76.8v-64zM358.435 413.866h-85.333v64h-76.8v-136.533l110.933 46.933 51.2 25.6zM371.235 507.733c72.533 0 132.267 59.733 132.267 132.267s-59.733 128-132.267 128-132.267-59.733-132.267-132.267v0c0-68.267 59.733-128 132.267-128zM584.568 179.2c4.267 4.267 8.533 8.533 12.8 12.8v76.8l-29.867 12.8-200.533 89.6-42.667-21.333-183.467-76.8v-76.8c4.267-4.267 12.8-8.533 17.067-12.8 17.067-17.067 29.867-38.4 38.4-64v93.867l149.333-68.267v-157.867l-145.067 64v-4.267c0-4.267-4.267-12.8-4.267-17.067s-4.267-8.533-4.267-12.8c0-4.267-4.267-8.533-4.267-8.533l4.267-8.533 81.067-38.4 98.133-46.933 93.867 46.933 81.067 38.4 17.067 8.533c0 4.267-4.267 4.267-4.267 8.533-4.267 4.267-4.267 8.533-4.267 12.8s-4.267 12.8-4.267 17.067v4.267l-149.333-64v157.867l149.333 68.267v-106.667c0 25.6 17.067 51.2 34.133 72.533zM106.702 162.133l-4.267 4.267-46.933 21.333c0-21.333 0-102.4 0-140.8 0-4.267 0-12.8 0-17.067 4.267-4.267 8.533-8.533 12.8-12.8 0 0 4.267 0 4.267-4.267l8.533-4.267h29.867c4.267 0 4.267 0 8.533 4.267l8.533 4.267c4.267 0 4.267 4.267 8.533 4.267l4.267 4.267c4.267 4.267 4.267 4.267 4.267 8.533s4.267 4.267 4.267 8.533c0 4.267 4.267 8.533 4.267 12.8v4.267c4.267 34.133-4.267 64-29.867 89.6-8.533 4.267-12.8 8.533-17.067 12.8zM691.235 187.733l-46.933-21.333-4.267-4.267c-8.533-4.267-12.8-8.533-17.067-17.067-21.333-25.6-34.133-55.467-29.867-89.6v-4.267c0-4.267 0-8.533 4.267-12.8 0-4.267 4.267-4.267 4.267-8.533s4.267-4.267 4.267-8.533l4.267-4.267c4.267-4.267 4.267-4.267 8.533-4.267l8.533-4.267c4.267 0 4.267 0 8.533-4.267h29.867l8.533 4.267c4.267 0 8.533 4.267 8.533 4.267 4.267 4.267 8.533 8.533 12.8 12.8 0 4.267 0 12.8 0 17.067-4.267 42.667-4.267 123.733-4.267 145.067v0z" />
<glyph unicode="&#xe928;" glyph-name="bug" data-tags="bug" horiz-adv-x="910" d="M839 548.266h-136.533c-21.333 38.4-51.2 68.267-85.333 93.867l76.8 76.8-68.267 68.267-102.4-102.4c-21.333 4.267-46.933 8.533-68.267 8.533s-46.933-4.267-68.267-8.533l-102.4 102.4-68.267-68.267 76.8-76.8c-34.133-25.6-64-55.467-85.333-93.867h-136.533v-93.867h102.4c-4.267-17.067-4.267-29.867-4.267-46.933v-46.933h-98.133v-93.867h93.867v-46.933c0-17.067 0-29.867 4.267-46.933h-98.133v-93.867h136.533c81.067-136.533 256-183.467 392.533-102.4 42.667 25.6 81.067 59.733 106.667 102.4h132.267v93.867h-102.4c4.267 17.067 4.267 29.867 4.267 46.933v46.933h98.133v93.867h-98.133v46.933c0 17.067 0 29.867-4.267 46.933h102.4v93.867zM553.133 172.8h-196.267v93.867h192l4.267-93.867zM553.133 360.533h-196.267v93.867h192l4.267-93.867z" />
<glyph unicode="&#xe929;" glyph-name="building_1" data-tags="building_1" horiz-adv-x="970" d="M621.533 362.666v268.8l-136.533 136.533-136.533-136.533v-89.6h-268.8v-627.2h810.667v448h-268.8zM258.867 4.266h-89.6v89.6h89.6c0 0 0-89.6 0-89.6zM258.867 183.466h-89.6v89.6h89.6v-89.6zM258.867 362.666h-89.6v89.6h89.6v-89.6zM531.933 4.266h-89.6v89.6h89.6c0 0 0-89.6 0-89.6zM531.933 183.466h-89.6v89.6h89.6v-89.6zM531.933 362.666h-89.6v89.6h89.6v-89.6zM531.933 541.866h-89.6v89.6h89.6v-89.6zM800.733 4.266h-89.6v89.6h89.6c0 0 0-89.6 0-89.6zM800.733 183.466h-89.6v89.6h89.6v-89.6z" />
<glyph unicode="&#xe92a;" glyph-name="building_2" data-tags="building_2" d="M512 554.666v170.667h-426.667v-768h853.333v597.333h-426.667zM256 42.666h-85.333v85.333h85.333v-85.333zM256 213.333h-85.333v85.333h85.333v-85.333zM256 384h-85.333v85.333h85.333c0 0 0-85.333 0-85.333zM256 554.666h-85.333v85.333h85.333c0 0 0-85.333 0-85.333zM426.667 42.666h-85.333v85.333h85.333c0 0 0-85.333 0-85.333zM426.667 213.333h-85.333v85.333h85.333c0 0 0-85.333 0-85.333zM426.667 384h-85.333v85.333h85.333c0 0 0-85.333 0-85.333zM426.667 554.666h-85.333v85.333h85.333c0 0 0-85.333 0-85.333zM853.333 42.666h-341.333v85.333h85.333v85.333h-85.333v85.333h85.333v85.333h-85.333v85.333h341.333c0 0 0-426.667 0-426.667zM768 384h-85.333v-85.333h85.333v85.333zM768 213.333h-85.333v-85.333h85.333v85.333z" />
<glyph unicode="&#xe92b;" glyph-name="building_3" data-tags="building_3" d="M891.732 725.333h-759.467v-98.133h759.467v98.133zM938.666 243.2v98.133l-46.933 238.933h-759.467l-46.933-238.933v-98.133h46.933v-285.867h473.6v285.867h187.733v-285.867h93.867v285.867h51.2zM511.999 51.2h-285.867v192h285.867c0 0 0-192 0-192z" />
<glyph unicode="&#xe92c;" glyph-name="calculator" data-tags="calculator" horiz-adv-x="749" d="M668.901 768h-614.4v-853.333h640v853.333h-25.6zM481.168 396.8h-72.533v68.267h72.533v-68.267zM336.101 396.8h-68.267v68.267h72.533l-4.267-68.267zM127.034 328.533h72.533v-68.267h-72.533v68.267zM267.834 328.533h72.533v-68.267h-72.533v68.267zM195.301 396.8h-68.267v68.267h72.533v-68.267zM127.034 187.733h72.533v-68.267h-72.533v68.267zM267.834 187.733h72.533v-68.267h-72.533v68.267zM476.901 119.466h-72.533v68.267h72.533v-68.267zM336.101-17.067h-68.267v68.267h72.533c-4.267 0-4.267-68.267-4.267-68.267zM408.634 51.2h72.533v-68.267h-72.533v68.267zM476.901 260.266h-72.533v68.267h72.533v-68.267zM621.968 533.333h-494.933v166.4h499.2v-166.4zM127.034 51.2h72.533v-68.267h-72.533v68.267zM549.434 328.533h72.533v-345.6h-72.533v345.6z" />
<glyph unicode="&#xe92d;" glyph-name="camera_off" data-tags="camera_off" d="M125.867 768l-38.4-38.4 119.467-119.467c-25.6-12.8-42.667-38.4-42.667-68.267v-439.467c0-38.4 34.133-72.533 72.533-72.533h546.133l115.2-115.2 38.4 38.4-810.667 814.933zM531.201 136.533c-102.4 0-183.467 81.067-183.467 179.2 0 38.4 12.8 81.067 38.4 110.933l46.933-46.933c-34.133-55.467-12.8-128 42.667-162.133 38.4-21.333 81.067-21.333 119.467 0l46.933-46.933c-29.867-17.067-68.267-29.867-110.933-34.133zM531.201 503.466c102.4 0 183.467-81.067 183.467-183.467 0-21.333-4.267-42.667-8.533-59.733l187.733-187.733c4.267 8.533 4.267 21.333 4.267 29.867v439.467c0 38.4-34.133 72.533-72.533 72.533h-115.2l-68.267 72.533h-217.6l-68.267-72.533h-4.267l119.467-119.467c21.333 8.533 38.4 8.533 59.733 8.533z" />
<glyph unicode="&#xe92e;" glyph-name="camera" data-tags="camera" d="M512 162.133c76.8 0 136.533 59.733 136.533 136.533s-59.733 136.533-136.533 136.533-136.533-59.733-136.533-136.533 59.733-136.533 136.533-136.533v0zM384 725.333l-76.8-85.333h-136.533c-46.933 0-85.333-38.4-85.333-85.333v-512c0-46.933 38.4-85.333 85.333-85.333h682.667c46.933 0 85.333 38.4 85.333 85.333v512c0 46.933-38.4 85.333-85.333 85.333h-136.533l-76.8 85.333h-256zM512 85.333c-119.467 0-213.333 93.867-213.333 213.333s93.867 213.333 213.333 213.333 213.333-93.867 213.333-213.333-93.867-213.333-213.333-213.333z" />
<glyph unicode="&#xe92f;" glyph-name="card_membership" data-tags="card_membership" d="M853.333 767.999h-682.667c-46.933 0-85.333-38.4-85.333-85.333 0 0 0 0 0 0v-469.333c0-46.933 38.4-85.333 85.333-85.333 0 0 0 0 0 0h170.667v-213.333l170.667 85.333 170.667-85.333v213.333h170.667c46.933 0 85.333 38.4 85.333 85.333 0 0 0 0 0 0v469.333c0 46.933-38.4 85.333-85.333 85.333 0 0 0 0 0 0zM853.333 213.332h-682.667v85.333h682.667c0 0 0-85.333 0-85.333zM853.333 426.665h-682.667v256h682.667c0 0 0-256 0-256z" />
<glyph unicode="&#xe930;" glyph-name="caret_down" data-tags="caret_down" d="M85.333 554.666l426.667-426.667 426.667 426.667z" />
<glyph unicode="&#xe931;" glyph-name="caret_left" data-tags="caret_left" horiz-adv-x="512" d="M469.333 768l-426.667-426.667 426.667-426.667z" />
<glyph unicode="&#xe932;" glyph-name="caret_right" data-tags="caret_right" horiz-adv-x="512" d="M42.667 768l426.667-426.667-426.667-426.667z" />
<glyph unicode="&#xe933;" glyph-name="caret_up" data-tags="caret_up" d="M938.667 128l-426.667 426.667-426.667-426.667z" />
<glyph unicode="&#xe934;" glyph-name="cart" data-tags="cart" d="M341.333 85.333c-46.933 0-85.333-38.4-85.333-85.333s38.4-85.333 85.333-85.333 85.333 38.4 85.333 85.333c0 46.933-38.4 85.333-85.333 85.333v0zM85.333 768v-85.333h85.333l153.6-324.267-59.733-102.4c-4.267-12.8-8.533-29.867-8.533-42.667 0-46.933 38.4-85.333 85.333-85.333h512v85.333h-494.933c-4.267 0-8.533 4.267-8.533 8.533v4.267l38.4 72.533h320c29.867 0 59.733 17.067 76.8 42.667l153.6 277.333c0 8.533 0 12.8 0 21.333 0 25.6-17.067 42.667-42.667 42.667v0h-631.467l-38.4 85.333h-140.8zM768 85.333c-46.933 0-85.333-38.4-85.333-85.333s38.4-85.333 85.333-85.333c46.933 0 85.333 38.4 85.333 85.333s-38.4 85.333-85.333 85.333c0 0 0 0 0 0z" />
<glyph unicode="&#xe935;" glyph-name="cash" data-tags="cash" d="M896 187.732v375.467h-699.733v42.667h742.4v-422.4h-42.667zM870.4 119.465h-46.933v379.733h-695.467v42.667h742.4v-422.4zM806.4 76.799h-721.067v396.8h721.067v-396.8zM759.467 430.932h-631.467v-311.467h631.467v311.467zM691.2 153.599c0-4.267 0-8.533 0-12.8h-251.733c64 0 110.933 59.733 110.933 132.267s-51.2 132.267-110.933 132.267h251.733c-4.267-8.533-4.267-21.333 4.267-29.867 8.533-12.8 25.6-17.067 38.4-12.8v-183.467c-8.533 4.267-21.333 4.267-29.867-4.267-4.267 0-12.8-12.8-12.8-21.333v0zM648.533 319.999c-21.333 4.267-38.4 0-51.2-17.067s-12.8-38.4 0-51.2c12.8-17.067 34.133-21.333 51.2-17.067s29.867 25.6 34.133 42.667c0 21.333-12.8 42.667-34.133 42.667v0zM490.667 354.132c0 0 0 0 0 0 0-4.267 0-4.267 0-8.533 0 0 0-4.267 0-4.267 0-4.267 0-4.267 0-8.533 0 0 0-4.267 0-4.267s0 0 0-4.267c0 0 0 0-4.267 0 0 0-4.267 0-4.267 0l-8.533 4.267c-4.267 0-8.533 4.267-12.8 4.267s-8.533 0-12.8 0c-4.267 0-8.533 0-8.533 0-4.267 0-4.267-4.267-8.533-4.267 0 0-4.267-4.267-4.267-4.267 0-4.267 0-4.267 0-8.533s0-8.533 4.267-8.533 4.267-4.267 8.533-8.533 8.533-4.267 12.8-4.267l12.8-4.267c4.267-4.267 8.533-4.267 12.8-8.533s8.533-4.267 12.8-8.533c4.267-4.267 8.533-8.533 8.533-12.8 4.267-4.267 4.267-12.8 4.267-17.067 0-8.533 0-17.067-4.267-25.6s-8.533-12.8-12.8-17.067c-4.267-4.267-12.8-8.533-21.333-8.533h-4.267v-25.6h-21.333v17.067c-4.267 0-12.8 0-17.067 0s-8.533 4.267-12.8 4.267c-4.267 0-8.533 4.267-8.533 4.267s-4.267 4.267-4.267 4.267c0 0-4.267 4.267-4.267 4.267 0 4.267 0 8.533 0 8.533 0 4.267 0 4.267 0 8.533 0 0 0 4.267 0 4.267s0 0 0 4.267c0 0 0 0 4.267 0 0 0 4.267 0 4.267-4.267l8.533-4.267c4.267 0 8.533-4.267 12.8-4.267s12.8-4.267 17.067-4.267c4.267 0 8.533 0 12.8 0s4.267 4.267 8.533 4.267c4.267 0 4.267 4.267 4.267 8.533s0 4.267 0 8.533 0 8.533-4.267 8.533-4.267 4.267-8.533 8.533c-4.267 8.533-8.533 8.533-12.8 8.533l-12.8 8.533c-4.267 4.267-8.533 4.267-12.8 8.533s-8.533 4.267-12.8 8.533c-4.267 4.267-8.533 8.533-8.533 12.8-4.267 12.8-4.267 29.867 0 42.667 4.267 4.267 8.533 12.8 12.8 17.067s12.8 8.533 21.333 8.533c4.267 0 8.533 0 12.8 4.267v21.333h21.333v-21.333h4.267c4.267 0 8.533 0 12.8-4.267 4.267 0 8.533-4.267 8.533-4.267 0 4.267 0 0 4.267-4.267v0 0zM332.8 273.065c0-72.533 51.2-132.267 110.933-132.267h-247.467c4.267 12.8 0 29.867-12.8 38.4-8.533 4.267-21.333 8.533-29.867 4.267v183.467c17.067-8.533 34.133 0 42.667 17.067 0 4.267 4.267 8.533 4.267 12.8s0 8.533 0 12.8h251.733c-68.267 0-119.467-59.733-119.467-136.533v0zM243.2 319.999c-17.067 4.267-38.4 0-51.2-17.067s-12.8-38.4 0-51.2c12.8-17.067 34.133-21.333 51.2-17.067s29.867 25.6 34.133 42.667c0 21.333-12.8 42.667-34.133 42.667v0z" />
<glyph unicode="&#xe936;" glyph-name="chat" data-tags="chat" d="M853.333 768h-682.667c-46.933 0-85.333-38.4-85.333-85.333v-768l170.667 170.667h597.333c46.933 0 85.333 38.4 85.333 85.333v512c0 46.933-38.4 85.333-85.333 85.333zM256 469.333h512v-85.333h-512v85.333zM597.333 256h-341.333v85.333h341.333v-85.333zM768 512h-512v85.333h512v-85.333z" />
<glyph unicode="&#xe937;" glyph-name="check_circle_full" data-tags="check_circle_full" d="M512 768c-234.667 0-426.667-192-426.667-426.667s192-426.667 426.667-426.667 426.667 192 426.667 426.667-192 426.667-426.667 426.667zM465.067 145.066l-29.867 29.867-157.867 140.8 55.467 64 128-115.2 230.4 251.733 64-55.467-290.133-315.733z" />
<glyph unicode="&#xe938;" glyph-name="check_circle_outline" data-tags="check_circle_outline" d="M435.2 174.933l29.867-29.867 285.867 315.733-64 55.467-230.4-251.733-128 115.2-55.467-64 162.133-140.8zM512 768c-234.667 0-426.667-192-426.667-426.667s192-426.667 426.667-426.667 426.667 192 426.667 426.667-192 426.667-426.667 426.667zM512 0c-187.733 0-341.333 153.6-341.333 341.333s153.6 341.333 341.333 341.333 341.333-153.6 341.333-341.333c0 0 0 0 0 0 0-187.733-153.6-341.333-341.333-341.333z" />
<glyph unicode="&#xe939;" glyph-name="check" data-tags="check" d="M371.2 55.467l55.467-51.2 512 571.733-115.2 102.4-409.6-456.533-226.133 204.8-102.4-115.2 285.867-256z" />
<glyph unicode="&#xe93a;" glyph-name="chevron_down" data-tags="chevron_down" d="M183.467 605.867l328.533-328.533 324.267 328.533 102.4-102.4-426.667-426.667-426.667 426.667z" />
<glyph unicode="&#xe93b;" glyph-name="chevron_left" data-tags="chevron_left" horiz-adv-x="632" d="M593.335 669.867l-106.667 98.133-448-426.667 448-426.667 106.667 102.4-341.333 324.267z" />
<glyph unicode="&#xe93c;" glyph-name="chevron_right" data-tags="chevron_right" horiz-adv-x="632" d="M145.335 767.999l-106.667-98.133 341.333-328.533-341.333-324.267 106.667-102.4 448 426.667z" />
<glyph unicode="&#xe93d;" glyph-name="chevron_up" data-tags="chevron_up" d="M836.266 64l-324.267 341.333-328.533-341.333-98.133 106.667 426.667 448 426.667-448z" />
<glyph unicode="&#xe93e;" glyph-name="chromebook" data-tags="chromebook" d="M866.134 110.933v529.067h-708.267v-529.067h-72.533v-68.267h853.333v68.267h-72.533zM584.534 110.933h-140.8v34.133h140.8v-34.133zM797.868 217.6h-571.733v354.133h567.467v-354.133z" />
<glyph unicode="&#xe93f;" glyph-name="close" data-tags="close" d="M938.666 682.666l-85.333 85.333-341.333-341.333-341.333 341.333-85.333-85.333 341.333-341.333-341.333-341.333 85.333-85.333 341.333 341.333 341.333-341.333 85.333 85.333-341.333 341.333z" />
<glyph unicode="&#xe940;" glyph-name="closed_caption" data-tags="closed_caption" horiz-adv-x="1150" d="M860.866 390.399v51.2c0 25.6-21.333 46.933-42.667 46.933 0 0 0 0-4.267 0h-140.8c-25.6 0-46.933-21.333-46.933-46.933 0 0 0 0 0 0v-192c0-25.6 21.333-46.933 46.933-46.933 0 0 0 0 0 0h140.8c25.6 0 46.933 21.333 46.933 46.933 0 0 0 0 0 4.267v51.2h-72.533v-25.6h-93.867v145.067h93.867v-25.6h72.533zM528.066 390.399v51.2c0 25.6-21.333 46.933-46.933 46.933 0 0 0 0 0 0h-145.067c-25.6 0-46.933-21.333-46.933-46.933 0 0 0 0 0-4.267v-192c0-25.6 21.333-46.933 42.667-46.933 0 0 0 0 4.267 0h140.8c25.6 0 46.933 21.333 46.933 46.933 0 0 0 0 0 0v51.2h-68.267v-25.6h-93.867v145.067h93.867v-25.6h72.533zM907.799 727.466c51.2 0 93.867-42.667 93.867-98.133v-576c0-51.2-42.667-93.867-93.867-98.133h-665.6c-51.2 4.267-93.867 46.933-93.867 102.4v571.733c0 55.467 42.667 98.133 93.867 98.133h665.6z" />
<glyph unicode="&#xe941;" glyph-name="cloud_done" data-tags="cloud_done" d="M778.666 398.933c-29.867 140.8-170.667 230.4-315.733 204.8-76.8-17.067-145.067-64-183.467-136.533-115.2-12.8-200.533-115.2-187.733-230.4 12.8-102.4 102.4-183.467 209.067-183.467h465.067c98.133 0 179.2 76.8 179.2 174.933 0 89.6-72.533 162.133-166.4 170.667zM445.866 155.733l-123.733 119.467 51.2 46.933 76.8-72.533 183.467 179.2 51.2-46.933-238.933-226.133z" />
<glyph unicode="&#xe942;" glyph-name="cloud_download" data-tags="cloud_download" d="M778.666 398.933c-29.867 140.8-170.667 230.4-315.733 204.8-76.8-17.067-145.067-64-183.467-136.533-115.2-12.8-200.533-115.2-187.733-230.4 12.8-102.4 102.4-183.467 209.067-183.467h465.067c98.133 0 179.2 76.8 179.2 174.933 0 89.6-72.533 162.133-166.4 170.667zM697.599 296.533l-179.2-174.933-179.2 174.933h106.667v136.533h140.8v-140.8h110.933z" />
<glyph unicode="&#xe943;" glyph-name="cloud_upload" data-tags="cloud_upload" d="M782.932 398.933c-29.867 140.8-170.667 230.4-315.733 204.8-81.067-17.067-149.333-68.267-187.733-136.533-119.467-12.8-200.533-119.467-187.733-230.4 12.8-102.4 102.4-183.467 209.067-183.467h465.067c98.133 0 179.2 76.8 179.2 174.933 0 89.6-72.533 162.133-162.133 170.667zM590.932 296.533v-140.8h-145.067v140.8h-106.667l179.2 174.933 179.2-174.933h-106.667z" />
<glyph unicode="&#xe944;" glyph-name="cloud" data-tags="cloud" d="M778.666 398.933c-29.867 140.8-170.667 230.4-315.733 204.8-76.8-17.067-145.067-64-183.467-136.533-115.2-12.8-200.533-115.2-187.733-230.4 12.8-102.4 102.4-183.467 209.067-183.467h465.067c98.133 0 179.2 76.8 179.2 174.933 0 89.6-72.533 162.133-166.4 170.667z" />
<glyph unicode="&#xe945;" glyph-name="cloudy" data-tags="cloudy" d="M582.401 78.933c55.467 0 102.4 42.667 110.933 98.133 4.267 59.733-34.133 115.2-93.867 132.267 0 0 12.8 162.133-132.267 179.2-72.533 8.533-136.533-38.4-157.867-106.667-25.6 21.333-59.733 25.6-85.333 8.533s-42.667-46.933-38.4-81.067c-59.733-12.8-102.4-64-102.4-123.733 4.267-106.667 106.667-102.4 106.667-102.4zM825.601 181.333c55.467 0 102.4 42.667 110.933 98.133 4.267 59.733-34.133 115.2-93.867 132.267 0 0 12.8 162.133-132.267 179.2-123.733 12.8-162.133-106.667-162.133-106.667s72.533-42.667 72.533-157.867c46.933-12.8 93.867-55.467 93.867-145.067z" />
<glyph unicode="&#xe946;" glyph-name="code" data-tags="code" d="M401.067 145.066l-196.267 196.267 196.267 196.267-59.733 59.733-256-256 256-256 59.733 59.733zM622.933 145.066l196.267 196.267-196.267 196.267 59.733 59.733 256-256-256-256-59.733 59.733z" />
<glyph unicode="&#xe947;" glyph-name="compare" data-tags="compare" horiz-adv-x="1022" d="M323.267 452.266v68.267h311.467v247.467h-550.4v-550.4h238.933v234.667zM391.533 209.066v-145.067l405.333 384h-149.333l-256-238.933zM720.067-85.334l217.6 209.067v140.8l-366.933-349.867h149.333zM818.2-85.334h119.467v115.2l-119.467-115.2zM937.667 452.266h-51.2l-494.933-477.867v-59.733h85.333l460.8 439.467v98.133zM549.4 452.266h-157.867v-149.333l157.867 149.333z" />
<glyph unicode="&#xe948;" glyph-name="compass" data-tags="compass" d="M512 388.266c-25.6 0-46.933-21.333-46.933-46.933s21.333-46.933 46.933-46.933 46.933 21.333 46.933 46.933c0 25.6-21.333 46.933-46.933 46.933 0 0 0 0 0 0zM512 768c-234.667 0-426.667-192-426.667-426.667s192-426.667 426.667-426.667 426.667 192 426.667 426.667-192 426.667-426.667 426.667zM605.867 247.466l-349.867-162.133 162.133 349.867 349.867 162.133-162.133-349.867z" />
<glyph unicode="&#xe949;" glyph-name="computer" data-tags="computer" d="M797.866 130.133c38.4 0 72.533 29.867 72.533 68.267 0 0 0 0 0 0v349.867c0 38.4-29.867 68.267-72.533 68.267h-571.733c-38.4 0-72.533-29.867-72.533-68.267v-345.6c0-38.4 29.867-68.267 72.533-68.267h-140.8v-68.267h853.333v68.267h-140.8zM226.132 548.267h567.467v-345.6h-567.467v345.6z" />
<glyph unicode="&#xe94a;" glyph-name="copy" data-tags="copy" horiz-adv-x="884" d="M612.667 765.866h-456.533c-42.667 0-76.8-34.133-76.8-76.8v-541.867h76.8v541.867h456.533v76.8zM727.867 612.266h-418.133c-42.667 0-76.8-34.133-76.8-76.8v-541.867c0-42.667 34.133-76.8 76.8-76.8h418.133c42.667 0 76.8 34.133 76.8 76.8v537.6c0 42.667-34.133 81.067-76.8 81.067v0zM727.867-10.668h-418.133v541.867h418.133v-541.867z" />
<glyph unicode="&#xe94b;" glyph-name="credit_card" data-tags="credit_card" d="M866.133 684.799c17.067 0 38.4-8.533 51.2-21.333s21.333-29.867 21.333-51.2v-541.867c0-17.067-8.533-38.4-21.333-51.2s-29.867-21.333-51.2-21.333h-708.267c-17.067 0-38.4 8.533-51.2 21.333-12.8 17.067-21.333 34.133-21.333 55.467v537.6c0 17.067 8.533 38.4 21.333 51.2s29.867 21.333 51.2 21.333h708.267zM157.867 629.333c-4.267 0-8.533 0-8.533-4.267-4.267-4.267-8.533-8.533-8.533-12.8v-98.133h738.133v98.133c0 4.267 0 8.533-4.267 8.533-4.267 4.267-4.267 4.267-8.533 4.267h-708.267zM866.133 57.599c4.267 0 8.533 0 8.533 4.267 4.267 4.267 4.267 4.267 4.267 8.533v273.067h-738.133v-268.8c0-4.267 0-8.533 4.267-8.533 4.267-4.267 4.267-4.267 8.533-4.267 4.267-4.267 712.533-4.267 712.533-4.267zM200.533 117.333v55.467h115.2v-55.467h-115.2zM371.2 117.333v55.467h170.667v-55.467h-170.667z" />
<glyph unicode="&#xe94c;" glyph-name="dashboard" data-tags="dashboard" d="M85.333 294.4h379.733v473.6h-379.733v-473.6zM85.333-85.334h379.733v285.867h-379.733v-285.867zM558.933-85.334h379.733v473.6h-379.733v-473.6zM558.933 768v-285.867h379.733v285.867h-379.733z" />
<glyph unicode="&#xe94d;" glyph-name="date_available" data-tags="date_available" horiz-adv-x="922" d="M653 337.066l-42.667 46.933-209.067-209.067-89.6 89.6-46.933-46.933 136.533-136.533 251.733 256zM759.667 682.666h-42.667v85.333h-85.333v-85.333h-341.333v85.333h-85.333v-85.333h-42.667c-46.933 0-85.333-38.4-85.333-85.333 0 0 0 0 0 0v-597.333c0-46.933 38.4-85.333 85.333-85.333 0 0 0 0 0 0h597.333c46.933 0 85.333 38.4 85.333 85.333v597.333c0 46.933-38.4 85.333-85.333 85.333v0zM759.667 0h-597.333v469.333h597.333v-469.333z" />
<glyph unicode="&#xe94e;" glyph-name="date_note" data-tags="date_note" horiz-adv-x="922" d="M674.333 384h-426.667v-85.333h426.667v85.333zM759.667 682.666h-42.667v85.333h-85.333v-85.333h-341.333v85.333h-85.333v-85.333h-42.667c-46.933 0-85.333-38.4-85.333-85.333 0 0 0 0 0 0v-597.333c0-46.933 38.4-85.333 85.333-85.333 0 0 0 0 0 0h597.333c46.933 0 85.333 38.4 85.333 85.333v597.333c0 46.933-38.4 85.333-85.333 85.333zM759.667 0h-597.333v469.333h597.333c0 0 0-469.333 0-469.333zM546.333 213.333h-298.667v-85.333h298.667c0 0 0 85.333 0 85.333z" />
<glyph unicode="&#xe94f;" glyph-name="date_range" data-tags="date_range" horiz-adv-x="922" d="M333 384h-85.333v-85.333h85.333c0 0 0 85.333 0 85.333zM503.667 384h-85.333v-85.333h85.333v85.333zM674.333 384h-85.333v-85.333h85.333c0 0 0 85.333 0 85.333zM759.667 682.666h-42.667v85.333h-85.333v-85.333h-341.333v85.333h-85.333v-85.333h-42.667c-46.933 0-85.333-38.4-85.333-85.333 0 0 0 0 0 0v-597.333c0-46.933 38.4-85.333 85.333-85.333 0 0 0 0 0 0h597.333c46.933 0 85.333 38.4 85.333 85.333v597.333c0 46.933-38.4 85.333-85.333 85.333zM759.667 0h-597.333v469.333h597.333c0 0 0-469.333 0-469.333z" />
<glyph unicode="&#xe950;" glyph-name="date" data-tags="date" horiz-adv-x="922" d="M674.333 298.665h-213.333v-213.333h213.333v213.333zM631.667 767.999v-85.333h-341.333v85.333h-85.333v-85.333h-42.667c-46.933 0-85.333-38.4-85.333-85.333 0 0 0 0 0 0v-597.333c0-46.933 38.4-85.333 85.333-85.333 0 0 0 0 0 0h597.333c46.933 0 85.333 38.4 85.333 85.333v597.333c0 46.933-38.4 85.333-85.333 85.333h-42.667v85.333h-85.333zM759.667-0.001h-597.333v469.333h597.333c0 0 0-469.333 0-469.333z" />
<glyph unicode="&#xe951;" glyph-name="delete" data-tags="delete" horiz-adv-x="796" d="M112.132 8.533c0-51.2 42.667-93.867 93.867-93.867h379.733c51.2 0 93.867 42.667 93.867 93.867v571.733h-567.467v-571.733zM730.799 721.066h-166.4l-46.933 46.933h-238.933l-46.933-46.933h-166.4v-93.867h665.6v93.867z" />
<glyph unicode="&#xe952;" glyph-name="desktop_mac" data-tags="desktop_mac" d="M859.733 727.466h-699.733c-42.667 0-76.8-34.133-76.8-76.8v-465.067c0-42.667 34.133-76.8 76.8-76.8h273.067l-76.8-115.2v-38.4h311.467v38.4l-76.8 115.2h273.067c42.667 0 76.8 34.133 76.8 76.8v465.067c-4.267 42.667-38.4 76.8-81.067 76.8zM859.733 262.399h-699.733v388.267h699.733v-388.267z" />
<glyph unicode="&#xe953;" glyph-name="desktop_windows" data-tags="desktop_windows" d="M859.733 725.333h-699.733c-42.667 0-76.8-34.133-76.8-76.8v-460.8c0-42.667 34.133-76.8 76.8-76.8h273.067v-76.8h-76.8v-76.8h311.467v76.8h-76.8v76.8h273.067c42.667 0 76.8 34.133 76.8 76.8v460.8c-4.267 42.667-38.4 76.8-81.067 76.8zM859.733 187.733h-699.733v460.8h699.733v-460.8z" />
<glyph unicode="&#xe954;" glyph-name="devices_other" data-tags="devices_other" d="M162.133 565.333h699.733v76.8h-699.733c-42.667 0-76.8-34.133-76.8-76.8v-448c0-42.667 34.133-72.533 76.8-76.8h153.6v76.8h-153.6v448zM550.4 343.466h-153.6v-68.267c-46.933-38.4-51.2-110.933-8.533-157.867 4.267-4.267 8.533-8.533 8.533-8.533v-64h153.6v68.267c46.933 38.4 51.2 110.933 8.533 157.867-4.267 4.267-8.533 8.533-8.533 8.533 0-4.267 0 64 0 64zM473.6 138.666c-34.133 0-59.733 25.6-59.733 55.467s25.6 55.467 59.733 55.467 59.733-25.6 59.733-55.467c0-29.867-29.867-55.467-59.733-55.467v0zM900.267 492.799h-234.667c-21.333 0-38.4-17.067-38.4-38.4v-375.467c0-21.333 17.067-34.133 38.4-38.4h234.667c21.333 0 38.4 17.067 38.4 38.4v375.467c0 21.333-17.067 38.4-38.4 38.4zM861.867 121.599h-153.6v298.667h153.6v-298.667z" />
<glyph unicode="&#xe955;" glyph-name="devices" data-tags="devices" d="M226.133 554.666h640v72.533h-640c-38.4 0-68.267-34.133-68.267-72.533v-392.533h-72.533v-106.667h499.2v106.667h-358.4v392.533zM904.533 482.133h-213.333c-21.333 0-34.133-17.067-34.133-34.133v-354.133c0-21.333 17.067-34.133 34.133-34.133h213.333c21.333 0 34.133 17.067 34.133 34.133v354.133c0 21.333-17.067 34.133-34.133 34.133v0zM866.133 162.133h-140.8v247.467h140.8v-247.467z" />
<glyph unicode="&#xe956;" glyph-name="directions" data-tags="directions" d="M925.866 371.199l-384 384c-17.067 17.067-42.667 17.067-59.733 0 0 0 0 0 0 0l-384-384c-17.067-17.067-17.067-42.667 0-59.733 0 0 0 0 0 0l384-384c17.067-17.067 42.667-17.067 59.733 0 0 0 0 0 0 0l384 384c17.067 17.067 17.067 42.667 0 59.733 0 0 0 0 0 0zM597.332 234.665v106.667h-170.667v-128h-85.333v170.667c0 25.6 17.067 42.667 42.667 42.667h213.333v106.667l149.333-149.333-149.333-149.333z" />
<glyph unicode="&#xe957;" glyph-name="discover_card" data-tags="discover_card" d="M200.532 381.866c0-12.8-4.267-21.333-12.8-29.867s-21.333-8.533-34.133-8.533h-4.267v81.067h4.267c12.8 0 25.6-4.267 34.133-8.533 8.533-12.8 12.8-21.333 12.8-34.133zM857.599 407.466c0-12.8-8.533-17.067-25.6-17.067h-8.533v34.133h8.533c17.067 0 25.6-8.533 25.6-17.067v0zM226.132 381.866c0 17.067-4.267 34.133-17.067 42.667-12.8 12.8-29.867 17.067-46.933 17.067h-38.4v-119.467h34.133c17.067 0 29.867 4.267 42.667 12.8 17.067 12.8 25.6 29.867 25.6 46.933zM238.932 322.132h25.6v119.467h-25.6v-119.467zM354.132 360.532c0 8.533 0 17.067-8.533 21.333-8.533 8.533-17.067 12.8-25.6 17.067-4.267 0-8.533 4.267-12.8 8.533-4.267 0-4.267 4.267-4.267 8.533s0 8.533 4.267 8.533c4.267 0 8.533 0 12.8 0 8.533 0 17.067-4.267 21.333-8.533l12.8 17.067c-12.8 8.533-25.6 12.8-38.4 12.8-8.533 0-17.067-4.267-25.6-12.8-8.533-4.267-12.8-17.067-12.8-25.6s0-12.8 8.533-21.333c8.533-4.267 12.8-8.533 25.6-8.533 4.267 0 12.8-4.267 17.067-8.533s8.533-8.533 8.533-12.8c0-4.267 0-8.533-4.267-12.8-8.533 0-12.8-4.267-17.067-4.267-12.8 0-21.333 4.267-25.6 17.067l-17.067-12.8c8.533-12.8 25.6-21.333 42.667-21.333 12.8 0 21.333 4.267 29.867 12.8 4.267 4.267 8.533 12.8 8.533 25.6v0zM460.799 326.399v29.867c-8.533-8.533-17.067-12.8-29.867-12.8s-21.333 4.267-29.867 12.8c-17.067 17.067-17.067 42.667 0 59.733 8.533 8.533 17.067 12.8 29.867 12.8s21.333-4.267 29.867-12.8v21.333c-8.533 4.267-21.333 8.533-29.867 8.533-17.067 0-34.133-8.533-46.933-17.067-25.6-25.6-25.6-64 0-89.6 0 0 0 0 0 0 12.8-12.8 29.867-17.067 46.933-17.067 8.533-4.267 17.067 0 29.867 4.267zM913.066 108.799v187.733c-17.067-8.533-34.133-21.333-51.2-29.867-21.333-8.533-46.933-25.6-89.6-42.667-38.4-17.067-81.067-34.133-123.733-51.2s-93.867-29.867-153.6-46.933c-59.733-17.067-123.733-29.867-187.733-42.667h580.267c17.067 4.267 25.6 12.8 25.6 25.6v0zM601.599 381.866c0 34.133-29.867 64-68.267 64-17.067 0-34.133-8.533-46.933-21.333-25.6-25.6-25.6-68.267 0-93.867s68.267-25.6 93.867 0c12.8 17.067 21.333 34.133 21.333 51.2zM657.066 322.132l51.2 123.733h-25.6l-34.133-81.067-34.133 81.067h-25.6l51.2-123.733h17.067zM721.066 322.132h68.267v21.333h-42.667v29.867h42.667v21.333h-42.667v25.6h42.667v21.333h-68.267v-119.467zM866.132 322.132h29.867l-42.667 51.2c17.067 0 29.867 17.067 29.867 34.133 0 8.533-4.267 21.333-12.8 25.6-8.533 8.533-21.333 8.533-34.133 8.533h-34.133v-119.467h25.6v46.933h4.267l34.133-46.933zM938.666 569.599v-456.533c0-12.8-4.267-25.6-12.8-34.133s-21.333-12.8-34.133-12.8h-759.467c-12.8 0-25.6 4.267-34.133 12.8-8.533 4.267-12.8 17.067-12.8 29.867v460.8c0 12.8 4.267 25.6 12.8 34.133s21.333 12.8 34.133 12.8h755.2c12.8 0 25.6-4.267 34.133-12.8 12.8-8.533 17.067-21.333 17.067-34.133z" />
<glyph unicode="&#xe958;" glyph-name="dissatisfied" data-tags="dissatisfied" d="M691.2 392.533c42.415 0 76.8 34.385 76.8 76.8s-34.385 76.8-76.8 76.8c-42.415 0-76.8-34.385-76.8-76.8s34.385-76.8 76.8-76.8c0 0 0 0 0 0zM332.8 392.533c42.415 0 76.8 34.385 76.8 76.8s-34.385 76.8-76.8 76.8c-42.415 0-76.8-34.385-76.8-76.8s34.385-76.8 76.8-76.8c42.415 0 76.8 34.385 76.8 76.8s-34.385 76.8-76.8 76.8c-42.415 0-76.8-34.385-76.8-76.8s34.385-76.8 76.8-76.8zM512 853.333c-282.77 0-512-229.23-512-512s229.23-512 512-512c282.77 0 512 229.23 512 512s-229.23 512-512 512zM512-68.267c-226.216 0-409.6 183.384-409.6 409.6s183.384 409.6 409.6 409.6c226.216 0 409.6-183.384 409.6-409.6s-183.384-409.6-409.6-409.6zM512 238.933c-118.608-0.010-220.065-73.43-261.413-177.3l84.773-1.9c35.902 61.017 101.244 101.322 176 101.322s140.098-40.305 175.481-100.37l85.959-0.952c-41.857 105.377-142.702 178.635-260.729 179.2z" />
<glyph unicode="&#xe959;" glyph-name="dollar_bill" data-tags="dollar_bill" d="M0 53.333v576h1024v-576zM64 567.253v-449.92h896v449.92zM672 341.333c0 105.92-71.68 192-160 192h416v-384h-416c88.32 0 160 86.080 160 192zM800 277.333c5.559-1.676 11.947-2.64 18.56-2.64 36.76 0 66.56 29.8 66.56 66.56s-29.8 66.56-66.56 66.56c-36.732 0-66.514-29.754-66.56-66.476-0.26-2.066-0.408-4.451-0.408-6.871 0-28.629 20.771-52.406 48.065-57.085zM579.84 421.973c-0.28-1.498-0.96-2.805-1.924-3.845-0.519-0.193-1.124-0.307-1.756-0.307s-1.237 0.114-1.795 0.324c-2.64 0.424-5.019 1.439-7.054 2.902l-11.79 6.046c-4.505 2.156-9.92 4.225-15.514 5.876-6.52 1.835-13.083 2.772-19.865 2.772-0.387 0-0.773-0.003-1.159-0.009-0.116 0.003-0.322 0.004-0.528 0.004-5.163 0-10.135-0.821-14.791-2.339-3.843-1.19-7.468-3.16-10.601-5.711-2.708-2.353-4.887-5.354-6.285-8.758-1.274-3.262-1.979-6.859-1.979-10.621 0-0.146 0.001-0.291 0.003-0.437-0.002-0.072-0.002-0.184-0.002-0.295 0-5.431 1.804-10.441 4.846-14.463 3.398-4.402 7.535-8.131 12.24-11.027 5.224-3.265 11.109-6.368 17.223-9.044l21.373-9.309c8.168-3.769 14.883-7.398 21.356-11.382 5.96-3.621 11.849-8.39 17.006-13.857 5.148-5.769 9.356-12.442 12.351-19.74 3.217-8.049 4.986-16.847 4.986-26.057 0-0.564-0.007-1.126-0.020-1.686 0.012-0.394 0.018-0.956 0.018-1.52 0-12.439-2.839-24.215-7.904-34.715-4.811-9.713-11.718-18.258-20.127-25.009-8.77-6.82-18.903-12.082-29.905-15.312l-5.12-0.161v-34.88h-32v32c-0.146-0.001-0.318-0.001-0.49-0.001-8.651 0-17.112 0.815-25.31 2.374-6.969 1.256-13.746 3.031-20.303 5.28-4.716 1.616-9.58 3.78-14.195 6.34-2.704 1.537-5.434 3.553-7.881 5.865-1.88 1.951-3.237 4.455-3.804 7.247-0.247 2.206-0.379 4.655-0.379 7.135s0.132 4.928 0.389 7.34c-0.127 1.231-0.185 3.019-0.185 4.82s0.058 3.589 0.171 5.362c-0.125 0.766-0.189 1.935-0.189 3.118s0.064 2.352 0.189 3.502c0.36 1.385 1.148 2.691 2.223 3.693 0.53 0.179 1.136 0.28 1.765 0.28s1.234-0.101 1.801-0.287c3.006-0.361 5.73-1.506 8.001-3.219l13.078-7.33c5.385-2.703 11.755-5.208 18.365-7.15 7.994-2.252 16.216-3.427 24.713-3.427 0.606 0 1.21 0.006 1.812 0.018 0.241-0.008 0.631-0.012 1.022-0.012 5.758 0 11.323 0.822 16.586 2.355 4.481 1.301 8.749 3.495 12.471 6.362 3.349 2.726 6.069 6.267 7.842 10.317 1.89 4.075 2.953 8.639 2.953 13.452 0 0.17-0.001 0.34-0.004 0.51 0.006 0.162 0.009 0.382 0.009 0.603 0 5.435-1.807 10.448-4.852 14.471-3.428 4.372-7.559 8.095-12.238 11.024-5.169 3.304-10.947 6.406-16.964 9.067l-20.994 9.289c-7.96 3.691-14.57 7.319-20.916 11.325-5.965 3.765-11.751 8.636-16.781 14.203-5.179 5.797-9.388 12.47-12.377 19.772-3.219 8.181-4.989 17.127-4.989 26.485 0 0.638 0.008 1.273 0.025 1.907-0.004 0.1-0.005 0.33-0.005 0.56 0 11.389 2.598 22.17 7.233 31.785 4.308 8.878 10.576 16.683 18.238 22.82 7.917 6.197 17.105 10.924 27.097 13.729 5.302 1.566 11.041 2.798 16.921 3.588l0.593 32.065h32v-32h3.84c6.703-1.029 12.535-2.367 18.205-4.080 4.584-1.417 9.251-3.265 13.723-5.45 2.615-1.011 5.363-2.628 7.815-4.598 0.943-0.96 1.796-2.119 2.461-3.394 0.106-0.654 0.146-1.321 0.146-1.998s-0.040-1.344-0.117-2c0.073-0.782 0.111-1.787 0.111-2.8s-0.037-2.018-0.111-3.013c0.008-2.107 0.008-4.987 0.008-8.507 0.084-1.482 0.133-3.215 0.133-4.96s-0.048-3.478-0.143-5.199c0.113-0.768 0.171-1.938 0.171-3.121s-0.058-2.353-0.172-3.506zM352 341.333c0-105.92 71.68-192 160-192h-416v384h416c-88.32 0-160-86.080-160-192zM224 405.333c-5.559 1.676-11.947 2.64-18.56 2.64-36.76 0-66.56-29.8-66.56-66.56s29.8-66.56 66.56-66.56c36.732 0 66.514 29.754 66.56 66.476 0.282 2.146 0.443 4.623 0.443 7.137 0 28.578-20.813 52.296-48.108 56.822z" />
<glyph unicode="&#xe95a;" glyph-name="dollar_symbol" data-tags="dollar_symbol" horiz-adv-x="540" d="M515.52 526.933h-215.68v35.84c0.302 4.452 0.475 9.65 0.475 14.888 0 21.332-2.859 41.996-8.216 61.63-4.975 8.981-15.793 16.136-28.283 16.136-1.175 0-2.335-0.063-3.477-0.187-0.569 0.069-1.396 0.101-2.232 0.101-11.557 0-21.683-6.126-27.307-15.308-6.443-11.752-10.186-25.583-10.186-40.287 0-1.975 0.067-3.934 0.2-5.875-0.361-2.853-0.559-6.464-0.559-10.122 0-22.946 7.791-44.073 20.872-60.879 33.97-27.87 72.068-54.029 112.356-76.764 46.721-26.569 83.426-51.748 117.957-79.52 19.872-19.083 36.947-43.968 48.073-71.869 13.542-34.283 21.111-72.399 21.111-112.284 0-3.313-0.052-6.613-0.156-9.901 0.303-4.224 0.468-9.722 0.468-15.259 0-62.515-21.115-120.099-56.603-166.009-41.737-44.896-100.022-74.991-165.303-80.587l-0.951-81.346h-98.88v83.84c-58.794 5.433-111.066 29.748-151.56 66.741q-63.8 57.739-63.8 202.059v42.24h215.36v-52.8c-0.347-6.958-0.544-15.11-0.544-23.307 0-29.979 2.643-59.342 7.708-87.866 3.439-9.416 14.847-18.281 28.325-18.281 1.138 0 2.262 0.063 3.368 0.186 0.474-0.047 1.187-0.068 1.905-0.068 12.166 0 22.988 5.754 29.894 14.688 7.901 11.608 12.576 25.827 12.576 41.138 0 0.756-0.011 1.509-0.034 2.259 0.215 4.595 0.336 10.112 0.336 15.657 0 31.318-3.855 61.736-11.117 90.805-14.858 27.183-38.792 50.705-68.002 65.187-52.949 31.909-96.799 61.996-138.899 94.253-22.086 19.659-42.819 46.946-57.214 77.787-17.588 35.699-27.516 75.993-27.516 118.607 0 1.011 0.006 2.020 0.017 3.028-0.203 3.257-0.319 7.246-0.319 11.261 0 54.13 20.935 103.371 55.15 140.067 43.671 39.074 100.786 64.188 163.67 67.687l0.698 68.831h99.2v-68.8c58.513-3.999 110.576-28.772 149.478-66.917 31.041-36.792 49.93-84.789 49.93-137.198 0-4.406-0.134-8.781-0.397-13.121q0.349-13.164-1.891-40.364z" />
<glyph unicode="&#xe95b;" glyph-name="drag_handle" data-tags="drag_handle" d="M1024 533.333h-1024v-128h1024zM0 149.333h1024v128h-1024z" />
<glyph unicode="&#xe95c;" glyph-name="drill" data-tags="drill" d="M328.96 709.333h142.72c1.162 0.066 2.521 0.104 3.889 0.104 40.118 0 72.64-32.522 72.64-72.64 0-0.937-0.018-1.87-0.053-2.798q0.004-107.066 0.004-213.946c0.004-0.291 0.007-0.634 0.007-0.978 0-39.941-32.379-72.32-72.32-72.32-0.565 0-1.128 0.006-1.69 0.019-51.436-0.002-102.636-0.002-154.156-0.002-0.554 0.089-1.193 0.14-1.843 0.14-5.859 0-10.751-4.144-11.903-9.661-19.052-54.429-34.296-118.444-42.996-184.521-1.097-8.422-1.417-12.369-1.417-16.39 0-21.865 9.453-41.523 24.494-55.109 12.762-9.802 20.867-24.983 20.867-42.057 0-7.979-1.77-15.544-4.938-22.325-9.045-20.271-29.337-34.367-52.922-34.367-1.373 0-2.735 0.048-4.084 0.142l-129.738-0.010c-1.668-0.133-3.611-0.209-5.573-0.209-41.002 0-74.24 33.238-74.24 74.24 0 4.484 0.397 8.874 1.159 13.139 5.776 60.766 18.218 117.012 36.678 170.451 8.056 22.7 19.576 49.9 30.456 76.78 3.969 5.884 6.335 13.133 6.335 20.935 0 15.513-9.355 28.841-22.731 34.651-52.804 31.213-87.516 87.59-87.604 152.082-0.035 1.338-0.056 2.898-0.056 4.463 0 92.035 69.754 167.777 159.279 177.243 38.536 2.947 75.656 2.947 112.456 2.947h57.28zM584.96 419.093v217.6c11.2 0 22.080 0 32 0 3.744-0.936 6.92-2.97 9.259-5.734 20.501-20.186 40.661-40.666 61.781-60.506 3.927-3.494 9.033-5.739 14.653-6.077 19.907-0.003 39.427-0.003 61.187-0.003-1.52-2.675-3.108-4.976-4.871-7.129q-66.489-66.151-133.369-132.071c-3.472-2.901-7.888-4.777-12.729-5.116-9.031-0.004-18.311-0.004-28.551-0.004zM300.8 165.333l32 142.080h5.12c42.24 2.88 64-6.72 59.52-56.32 0-16.96 0-33.92 0-50.88 0.001-0.102 0.002-0.223 0.002-0.344 0-18.637-14.753-33.829-33.218-34.534-19.584-0.002-39.424-0.002-64.064-0.002zM768 491.093l70.4 70.080c1.6 1.491 3.718 2.444 6.058 2.559l65.622 0.001 2.56-3.52c-5.44-4.48-10.88-8.64-16-13.44l-50.24-49.6c-2.698-2.974-6.341-5.047-10.452-5.745-21.868-0.015-43.308-0.015-68.268-0.015zM988.48 561.173l35.52-37.44-32-29.44c-1.523-1.488-3.498-2.521-5.7-2.872l-67.26-0.008 70.72 70.080z" />
<glyph unicode="&#xe95d;" glyph-name="edit" data-tags="edit" d="M0 42.773v-213.44h213.44l629.12 629.12-213.44 213.44-629.12-629.12zM1007.36 623.253c10.315 10.261 16.699 24.465 16.699 40.16s-6.384 29.899-16.697 40.158l-133.122 133.122c-10.261 10.315-24.465 16.699-40.16 16.699s-29.899-6.384-40.158-16.697l-104.002-104.002 213.44-213.44 104 104z" />
<glyph unicode="&#xe95e;" glyph-name="error_full" data-tags="error_full" d="M512 853.333c-281.6 0-512-230.4-512-512s230.4-512 512-512 512 230.4 512 512-230.4 512-512 512v0zM563.2 85.333h-102.4v102.4h102.4v-102.4zM563.2 290.133h-102.4v307.2h102.4v-307.2z" />
<glyph unicode="&#xe95f;" glyph-name="error_outline" data-tags="error_outline" d="M512 768c-234.667 0-426.667-192-426.667-426.667s192-426.667 426.667-426.667 426.667 192 426.667 426.667-192 426.667-426.667 426.667v0zM512 0c-187.733 0-341.333 153.6-341.333 341.333s153.6 341.333 341.333 341.333 341.333-153.6 341.333-341.333-153.6-341.333-341.333-341.333v0zM554.667 213.333h-85.333v-85.333h85.333v85.333zM554.667 554.666h-85.333v-256h85.333v256z" />
<glyph unicode="&#xe960;" glyph-name="eux" data-tags="eux" d="M2.88 641.813h79.68v-12.48h-64v-40h64v-12.48h-64v-50.24h64v-12.48h-79.68v128zM108.48 513.813v128h3.2l92.48-97.92v97.92h13.76v-128h-3.2l-91.84 96v-96zM239.36 629.333v12.48h76.16v-12.48h-32v-115.2h-12.8v115.2zM337.92 641.813h79.68v-12.48h-65.6v-40h64v-12.48h-64v-50.24h64v-12.48h-78.4v128zM444.16 641.813h27.84c1.96 0.073 4.262 0.114 6.574 0.114 8.967 0 17.788-0.623 26.423-1.828 6.941-1.428 13.762-5.43 18.814-11.053 4.808-5.249 7.736-12.228 7.736-19.892 0-0.443-0.010-0.885-0.029-1.323 0.010-0.194 0.014-0.495 0.014-0.797 0-6.46-1.914-12.473-5.207-17.503-3.687-5.255-8.931-9.364-15.064-11.646-7.464-2.744-15.829-4.289-24.555-4.289-1.008 0-2.011 0.021-3.009 0.061l50.383-59.205h-17.28l-51.2 58.88h-7.68v-59.2h-14.080v128zM457.92 629.333v-43.52h24c0.802-0.036 1.742-0.056 2.688-0.056 6.456 0 12.69 0.956 18.566 2.734 3.34 1.489 6.479 4.012 8.783 7.18 2.443 3.34 3.883 7.451 3.883 11.898 0 0.002 0 0.003 0 0.005 0 0.032 0 0.070 0 0.108 0 4.413-1.441 8.49-3.878 11.786-2.418 3.314-5.802 5.873-9.739 7.262-5.466 1.501-11.578 2.338-17.885 2.338-0.963 0-1.922-0.020-2.875-0.058l-24.823 0.004zM562.88 641.813h27.84c1.72 0.052 3.742 0.081 5.772 0.081 9.247 0 18.351-0.611 27.274-1.795 6.669-1.493 13.269-5.486 18.118-11.045 4.978-5.646 7.995-13.051 7.995-21.161s-3.017-15.515-7.99-21.155c-5.273-5.64-12.303-9.641-20.219-11.129-9.24-1.512-19.624-2.355-30.204-2.355-1.95 0-3.894 0.029-5.83 0.086l-9.636-0.007v-59.2h-14.080v128zM576 629.333v-43.2h23.36c0.885-0.044 1.923-0.069 2.966-0.069 6.472 0 12.719 0.961 18.607 2.747 3.827 1.47 7.401 4.117 10.068 7.511 2.438 3.328 3.879 7.439 3.879 11.887 0 0.002 0 0.003 0 0.005-0.048 4.339-1.482 8.334-3.878 11.574-2.506 3.311-5.854 5.939-9.726 7.568-5.479 1.515-11.59 2.352-17.897 2.352-0.963 0-1.922-0.020-2.875-0.058zM679.36 641.813h27.84c1.96 0.073 4.262 0.114 6.574 0.114 8.967 0 17.788-0.623 26.423-1.828 6.941-1.428 13.762-5.43 18.814-11.053 4.808-5.249 7.736-12.228 7.736-19.892 0-0.443-0.010-0.885-0.029-1.323 0.010-0.194 0.014-0.495 0.014-0.797 0-6.46-1.914-12.473-5.207-17.503-3.687-5.255-8.931-9.364-15.064-11.646-7.464-2.744-15.829-4.289-24.555-4.289-1.008 0-2.011 0.021-3.009 0.061l49.103-59.525h-17.28l-49.28 59.2h-7.68v-59.2h-14.080v128zM693.44 629.333v-43.52h24c0.802-0.036 1.742-0.056 2.688-0.056 6.456 0 12.69 0.956 18.566 2.734 3.875 1.364 7.476 4.035 10.066 7.505 2.441 3.334 3.881 7.445 3.881 11.893 0 0.002 0 0.003 0 0.005-0.048 4.339-1.482 8.334-3.878 11.574-2.418 3.314-5.802 5.873-9.739 7.262-5.466 1.501-11.578 2.338-17.885 2.338-0.963 0-1.922-0.020-2.875-0.058l-24.823 0.004zM796.16 641.813h14.080v-128h-13.44v128zM828.16 538.133l11.84 6.72c5.005-11.603 15.806-19.842 28.656-21.109 0.238-0.013 0.349-0.013 0.461-0.013 4.687 0 9.097 1.186 12.947 3.273 3.837 1.657 7.101 4.406 9.407 7.85 1.997 3.066 3.181 6.707 3.249 10.621-0.099 4.761-1.77 9.096-4.512 12.54-6.808 7.929-14.72 14.72-23.537 20.189-8.688 5.384-15.829 11.202-22.152 17.808-4.435 5.31-7.179 12.095-7.397 19.513-0.003 0.164-0.004 0.303-0.004 0.442 0 5.422 1.55 10.482 4.231 14.761 3 4.489 7.099 8.178 11.914 10.68 4.911 2.579 10.521 4.043 16.474 4.043 1.022 0 2.034-0.043 3.034-0.128 0.105 0.014 0.382 0.018 0.66 0.018 6.402 0 12.416-1.664 17.632-4.583 7.027-4.328 13.085-9.876 17.937-16.377l-11.080-7.849c-3.826 4.832-8.258 8.959-13.235 12.348-3.607 2.109-7.684 3.291-12.034 3.332-0.391 0.026-0.833 0.041-1.279 0.041-4.766 0-9.134-1.708-12.523-4.546-3.116-2.746-5.091-6.783-5.091-11.281 0-0.075 0.001-0.15 0.002-0.225 0-2.876 0.588-5.626 1.651-8.125 1.777-3.147 4.132-5.911 6.933-8.141 5.285-4.247 11.133-8.363 17.238-12.103 10.396-6.449 18.634-13.669 25.563-22.013 4.131-5.449 6.536-12.128 6.536-19.368 0-9.712-4.327-18.414-11.158-24.283-7.27-6.401-16.815-10.286-27.268-10.286-0.329 0-0.656 0.004-0.983 0.011-0.086-0.002-0.246-0.003-0.405-0.003-8.253 0-15.95 2.385-22.437 6.504-8.192 4.381-14.804 11.199-18.913 19.48zM940.8 641.813h79.68v-12.48h-64v-40h64v-12.48h-64v-50.24h64v-12.48h-77.76v128zM793.6 86.613c0 2.24-10.24 14.72-25.92 36.48s-26.24 37.12-32 44.8c-24-36.8-43.52-66.24-58.56-88l-26.88-38.72h175.68l-32 45.12zM227.84 154.453c13.339-8.849 29.72-14.119 47.333-14.119 0.91 0 1.816 0.014 2.719 0.042 0.27-0.010 0.744-0.014 1.218-0.014 17.594 0 33.96 5.259 47.611 14.291 14.433 10.89 25.576 26.063 31.491 43.639 7.931 22.075 12.408 46.811 12.408 72.593 0 1.817-0.022 3.629-0.066 5.435l0.005 214.452h-187.84v-214.4c-0.059-1.907-0.093-4.151-0.093-6.402 0-26.021 4.488-50.994 12.732-74.186 5.563-16.695 16.72-31.884 31.284-42.763zM658.88 272.533l-160 218.24h-3.84v-251.2c0.088-2.46 0.139-5.349 0.139-8.251 0-34.464-7.112-67.266-19.95-97.020-11.557-25.771-29.262-48.707-51.221-66.629-12.597-9.758-26.453-18.391-41.155-25.558l111.866-0.622 165.12 231.040zM972.16 490.773l-154.56-218.24 170.88-230.72h35.52v448zM92.48 111.253c-20.301 33.052-32.326 73.081-32.326 115.918 0 4.25 0.118 8.472 0.352 12.664l-0.026 250.938h-60.48v-448h173.44c-33.659 15.277-61.174 39.090-80.52 68.722zM657.28 490.773l22.080-30.080c16.64-23.040 35.84-51.2 58.56-85.44 21.76 36.48 39.040 64 51.84 80.32l25.92 35.52z" />
<glyph unicode="&#xe961;" glyph-name="ev_station" data-tags="ev_station" horiz-adv-x="939" d="M896 612.693v0l-209.92 212.16-60.16-60.16 120-120c-53.992-20.95-91.574-72.486-91.574-132.8 0-78.469 63.611-142.080 142.080-142.080 0.019 0 0.038 0 0.057 0 20.601 0.071 40.171 4.421 57.889 12.205l-0.932-410.605c0 0 0 0 0 0 0-31.458-25.502-56.96-56.96-56.96s-56.96 25.502-56.96 56.96c0 0 0 0 0 0v256c-0.18 62.731-50.894 113.558-113.565 113.92h-56.995v398.080c-0.181 62.843-51.077 113.739-113.903 113.92h-341.137c-62.843-0.181-113.739-51.077-113.92-113.903v-910.097h568.96v426.56h85.44v-284.48c0-78.557 63.683-142.24 142.24-142.24s142.24 63.683 142.24 142.24v540.48c-0.302 39.519-16.655 75.16-42.853 100.774zM795.2 455.253c-31.458 0-56.96 25.502-56.96 56.96s25.502 56.96 56.96 56.96c31.458 0 56.96-25.502 56.96-56.96 0 0 0 0 0 0 0-31.458-25.502-56.96-56.96-56.96s-56.96 25.502-56.96 56.96c0 31.458 25.502 56.96 56.96 56.96s56.96-25.502 56.96-56.96c0-31.458-25.502-56.96-56.96-56.96zM227.52-0.107v256h-113.6l227.52 426.88v-284.48h113.92l-227.84-398.4z" />
<glyph unicode="&#xe962;" glyph-name="exit_to_app" data-tags="exit_to_app" d="M403.2 137.173l80.32-80.32 284.48 284.48-284.48 284.48-80.32-80.32 146.88-147.2h-550.080v-113.92h550.080zM910.080 853.333h-796.16c-0.095 0-0.208 0-0.32 0-62.74 0-113.6-50.86-113.6-113.6 0-0.113 0-0.225 0-0.338v-227.503h113.92v227.52h796.16v-796.16h-796.16v227.52h-113.92v-227.52c0-0.095 0-0.208 0-0.32 0-62.74 50.86-113.6 113.6-113.6 0.113 0 0.225 0 0.338 0h796.143c62.843 0.181 113.739 51.077 113.92 113.903v796.177c-0.181 62.843-51.077 113.739-113.903 113.92z" />
<glyph unicode="&#xe963;" glyph-name="extension" data-tags="extension" d="M834.133 364.8h-59.733v162.133c0 42.667-34.133 81.067-81.067 81.067h-162.133v59.733c0 55.467-46.933 102.4-102.4 102.4s-102.4-46.933-102.4-102.4c0 0 0 0 0 0v-59.733h-162.133c-46.933 0-81.067-34.133-81.067-81.067v0-153.6h59.733c59.733 0 110.933-51.2 110.933-110.933s-51.2-110.933-110.933-110.933h-59.733v-157.867c0-42.667 34.133-81.067 81.067-81.067h157.867v59.733c0 59.733 51.2 110.933 110.933 110.933s110.933-51.2 110.933-110.933v-55.467h153.6c42.667 0 81.067 34.133 81.067 81.067v162.133h59.733c55.467 0 102.4 46.933 102.4 102.4s-51.2 102.4-106.667 102.4c0 0 0 0 0 0v0z" />
<glyph unicode="&#xe964;" glyph-name="faucet" data-tags="faucet" d="M776.533 349.866v192c0 128-102.4 226.133-230.4 226.133s-226.133-102.4-226.133-226.133h119.467c0 59.733 51.2 110.933 110.933 110.933s110.933-51.2 110.933-110.933v-192h-153.6c0-8.533 0-12.8-4.267-21.333-4.267-29.867-21.333-55.467-46.933-76.8h482.133v98.133h-162.133zM251.733 328.533c0 8.533-4.267 12.8-4.267 21.333h-162.133v-98.133h209.067c-21.333 17.067-38.4 46.933-42.667 76.8zM503.467 55.466c-12.8-68.267-76.8-115.2-149.333-106.667-55.467 8.533-98.133 51.2-106.667 106.667-4.267 34.133 0 68.267 17.067 98.133h-64v-238.933h627.2v238.933h-337.067c12.8-29.867 21.333-64 12.8-98.133v0zM379.733 298.666c25.6 0 46.933 17.067 51.2 42.667 8.533 38.4-29.867 85.333-51.2 123.733-17.067-34.133-59.733-85.333-51.2-123.733 4.267-25.6 25.6-42.667 51.2-42.667zM328.533 72.533c4.267-25.6 29.867-46.933 55.467-42.667 21.333 4.267 38.4 21.333 42.667 42.667 8.533 38.4-29.867 85.333-51.2 123.733-17.067-38.4-55.467-89.6-46.933-123.733z" />
<glyph unicode="&#xe965;" glyph-name="fast_forward" data-tags="fast_forward" d="M85.333 46.933l413.867 290.133-413.867 298.667v-588.8zM524.8 635.733v-584.533l413.867 290.133-413.867 294.4z" />
<glyph unicode="&#xe966;" glyph-name="fast_rewind" data-tags="fast_rewind" d="M499.2 51.2v584.533l-413.867-294.4 413.867-290.133zM524.8 341.333l413.867-294.4v588.8l-413.867-294.4z" />
<glyph unicode="&#xe967;" glyph-name="file_download" data-tags="file_download" horiz-adv-x="843" d="M784.168 465.067h-209.067v302.933h-307.2v-302.933h-209.067l362.667-349.867 362.667 349.867zM58.834 17.067v-102.4h725.333v102.4h-725.333z" />
<glyph unicode="&#xe968;" glyph-name="file_upload" data-tags="file_upload" horiz-adv-x="843" d="M265.767 106.666h311.467v311.467h209.067l-366.933 362.667-362.667-362.667h209.067v-311.467zM56.7 4.266h725.333v-102.4h-725.333v102.4z" />
<glyph unicode="&#xe969;" glyph-name="finger_print" data-tags="finger_print" horiz-adv-x="921" d="M705.835 650.667c-4.267 0-8.533 0-8.533 4.267-72.533 38.4-153.6 59.733-238.933 59.733-81.067 0-166.4-21.333-238.933-59.733-8.533-4.267-21.333 0-29.867 8.533s0 21.333 8.533 29.867c162.133 85.333 354.133 85.333 516.267 0 8.533-4.267 12.8-17.067 8.533-29.867 0 0 0 0 0 0 0-8.533-8.533-12.8-17.067-12.8v0zM95.701 428.8c-4.267 0-8.533 0-12.8 4.267-8.533 4.267-12.8 17.067-4.267 29.867 0 0 0 0 0 0 42.667 59.733 98.133 106.667 162.133 140.8 136.533 68.267 302.933 68.267 439.467 0 64-34.133 119.467-81.067 162.133-136.533 8.533-8.533 4.267-21.333-4.267-29.867s-21.333-4.267-29.867 4.267v0c-38.4 51.2-85.333 93.867-145.067 123.733-128 64-273.067 64-401.067 0-59.733-34.133-110.933-76.8-149.333-128-4.267-4.267-8.533-8.533-17.067-8.533v0zM364.501-87.466c-4.267 0-12.8 4.267-17.067 4.267-34.133 34.133-64 72.533-85.333 115.2-29.867 55.467-46.933 119.467-46.933 183.467 4.267 128 110.933 230.4 243.2 230.4 128 4.267 238.933-98.133 243.2-230.4 0-12.8-8.533-21.333-21.333-21.333s-21.333 8.533-21.333 21.333c-4.267 106.667-93.867 187.733-200.533 187.733-106.667 4.267-196.267-81.067-200.533-187.733 0-55.467 12.8-115.2 38.4-162.133 21.333-38.4 46.933-72.533 81.067-102.4 8.533-8.533 8.533-21.333 0-29.867-4.267-4.267-8.533-4.267-12.8-8.533v0zM667.435-6.4c-46.933 0-93.867 12.8-132.267 38.4-64 42.667-102.4 110.933-102.4 187.733 0 12.8 8.533 21.333 21.333 21.333s21.333-8.533 21.333-21.333c0-59.733 29.867-119.467 81.067-153.6 34.133-21.333 68.267-29.867 106.667-29.867 12.8 0 29.867 0 42.667 4.267 12.8 0 21.333-4.267 25.6-17.067 0-12.8-4.267-21.333-17.067-25.6v0c-12.8-4.267-29.867-4.267-46.933-4.267v0zM582.101-96h-4.267c-59.733 12.8-115.2 46.933-162.133 89.6-59.733 59.733-93.867 140.8-93.867 221.867 0 72.533 59.733 128 132.267 123.733 72.533 0 128-55.467 132.267-123.733 4.267-46.933 46.933-85.333 93.867-81.067 42.667 4.267 76.8 38.4 81.067 81.067 0 157.867-140.8 290.133-311.467 290.133-119.467 0-226.133-64-281.6-170.667-17.067-38.4-25.6-76.8-25.6-119.467 0-51.2 8.533-102.4 29.867-153.6 4.267-12.8 0-21.333-12.8-25.6s-21.333 0-25.6 12.8c-21.333 55.467-29.867 110.933-29.867 170.667 0 46.933 8.533 93.867 29.867 136.533 64 123.733 187.733 200.533 324.267 196.267 196.267 0 354.133-149.333 354.133-332.8 0-72.533-59.733-132.267-132.267-132.267s-132.267 59.733-132.267 132.267v0c0 46.933-42.667 85.333-89.6 81.067-46.933 0-89.6-34.133-89.6-81.067 0 0 0 0 0 0 0-72.533 29.867-140.8 81.067-192 38.4-38.4 85.333-68.267 140.8-81.067 12.8-4.267 17.067-12.8 17.067-25.6 0 0 0 0 0 0-8.533-8.533-17.067-17.067-25.6-17.067v0z" />
<glyph unicode="&#xe96a;" glyph-name="flag" data-tags="flag" horiz-adv-x="904" d="M545.867 665.6l-21.333 102.4h-435.2v-853.333h98.133v349.867h268.8l21.333-98.133h337.067v499.2z" />
<glyph unicode="&#xe96b;" glyph-name="folder" data-tags="folder" d="M426.667 682.666h-256c-46.933 0-85.333-38.4-85.333-85.333v-512c0-46.933 38.4-85.333 85.333-85.333h682.667c46.933 0 85.333 38.4 85.333 85.333v426.667c0 46.933-38.4 85.333-85.333 85.333h-341.333l-85.333 85.333z" />
<glyph unicode="&#xe96c;" glyph-name="free_shipping" data-tags="free_shipping" horiz-adv-x="1021" d="M510.5 767.999l-426.667-192v-448l426.667-213.333 426.667 209.067v452.267l-426.667 192zM510.5 686.932l102.4-46.933-307.2-136.533-98.133 46.933 302.933 136.533zM472.1 17.065l-311.467 153.6v320l311.467-153.6v-320zM510.5 401.065l-115.2 55.467 307.2 140.8 106.667-46.933-298.667-149.333zM860.367 174.932l-315.733-157.867v315.733l315.733 153.6v-311.467zM391.033 294.399l-170.667 85.333v-153.6l170.667-85.333v153.6z" />
<glyph unicode="&#xe96d;" glyph-name="fuel_rewards" data-tags="fuel_rewards" horiz-adv-x="944" d="M821.867 563.199v0l-170.667 174.933-51.2-51.2 98.133-93.867c-42.667-17.067-72.533-59.733-72.533-110.933 0-64 51.2-119.467 115.2-119.467 0 0 0 0 0 0 17.067 0 29.867 4.267 46.933 8.533v-341.333c0-25.6-21.333-46.933-46.933-46.933v0c-25.6 0-46.933 17.067-46.933 42.667 0 0 0 4.267 0 4.267v213.333c0 51.2-42.667 93.867-93.867 93.867h-46.933v337.067c0 51.2-42.667 93.867-93.867 93.867h-277.333c-51.2 0-93.867-42.667-93.867-93.867v-759.467h465.067v358.4h68.267v-238.933c0-64 51.2-119.467 115.2-119.467s115.2 55.467 115.2 119.467v452.267c4.267 29.867-8.533 55.467-29.867 76.8zM433.6 170.665c-21.333-21.333-46.933-34.133-76.8-38.4v-38.4h-51.2v42.667c-25.6 4.267-46.933 17.067-68.267 34.133-21.333 25.6-34.133 64-34.133 98.133v17.067h102.4v-29.867c-4.267-17.067 0-34.133 4.267-51.2 0-4.267 8.533-8.533 12.8-8.533s12.8 4.267 12.8 8.533c8.533 4.267 8.533 8.533 8.533 17.067 0 17.067 0 34.133-4.267 51.2-4.267 12.8-12.8 17.067-34.133 34.133-34.133 17.067-51.2 34.133-64 42.667s-21.333 25.6-29.867 38.4c-8.533 21.333-12.8 38.4-12.8 59.733 0 29.867 8.533 55.467 29.867 76.8s46.933 29.867 76.8 34.133v34.133h46.933v-34.133c25.6 0 51.2-12.8 68.267-34.133s25.6-46.933 25.6-72.533v-21.333h-102.4v17.067c0 12.8 0 25.6-4.267 38.4 0 4.267-4.267 8.533-12.8 8.533-4.267 0-8.533-4.267-12.8-8.533-8.533-8.533-8.533-17.067-8.533-25.6 0-12.8 4.267-21.333 8.533-34.133 17.067-12.8 34.133-25.6 55.467-38.4 21.333-8.533 38.4-21.333 51.2-38.4 12.8-8.533 17.067-25.6 21.333-38.4 4.267-17.067 8.533-38.4 8.533-55.467 8.533-29.867 0-59.733-17.067-85.333v0zM740.8 435.199c-25.6 0-46.933 21.333-46.933 46.933v0c0 25.6 21.333 46.933 46.933 46.933s46.933-21.333 46.933-46.933c0 0 0 0 0 0 0-25.6-21.333-46.933-46.933-46.933 0 0 0 0 0 0v0z" />
<glyph unicode="&#xe96e;" glyph-name="fuel" data-tags="fuel" horiz-adv-x="939" d="M819.368 569.6v0l-170.667 174.933-51.2-46.933 98.133-98.133c-59.733-21.333-89.6-89.6-68.267-153.6 17.067-46.933 59.733-76.8 106.667-76.8 17.067 0 29.867 4.267 46.933 8.533v-341.333c0-25.6-21.333-46.933-46.933-46.933s-46.933 21.333-46.933 46.933c0 0 0 0 0 0v213.333c0 51.2-42.667 93.867-93.867 93.867h-46.933v332.8c0 51.2-42.667 93.867-93.867 93.867h-273.067c-51.2 0-93.867-42.667-93.867-93.867v-759.467h465.067v354.133h68.267v-238.933c0-64 51.2-119.467 115.2-119.467s115.2 51.2 115.2 119.467v452.267c4.267 34.133-8.533 64-29.867 85.333zM456.701 437.334h-277.333v238.933h277.333v-238.933zM738.301 437.334c-25.6 0-46.933 21.333-46.933 46.933s21.333 46.933 46.933 46.933c25.6 0 46.933-21.333 46.933-46.933s-21.333-46.933-46.933-46.933v0z" />
<glyph unicode="&#xe96f;" glyph-name="get_it_installed" data-tags="get_it_installed" d="M255.999 544h51.2v-89.6l102.4 38.4 529.067-196.267v59.733l-524.8 196.267-46.933-17.067v64h-170.667v-128l-110.933-42.667v-59.733l170.667 64v110.933zM153.599 224c17.067 0 38.4 8.533 51.2 21.333 4.267 12.8 8.533 29.867 8.533 42.667h-59.733v-21.333h25.6c0-12.8-12.8-21.333-25.6-21.333 0 0 0 0 0 0-17.067 0-34.133 17.067-29.867 34.133 0 0 0 0 0 0 0 17.067 12.8 34.133 29.867 34.133 0 0 0 0 0 0 12.8 0 21.333-8.533 25.6-17.067l29.867 12.8c-12.8 21.333-34.133 34.133-55.467 34.133-34.133 4.267-64-21.333-64-51.2 0-4.267 0-4.267 0-8.533 0-34.133 25.6-59.733 59.733-59.733 0 0 0 0 4.267 0zM294.399 313.6v25.6h-68.267v-110.933h68.267v25.6h-34.133v21.333h34.133v25.6h-34.133v17.067h34.133zM362.666 228.267v89.6h25.6v25.6h-85.333v-25.6h25.6v-89.6h34.133zM452.266 339.2h29.867v-110.933h-29.867v110.933zM550.399 228.267v89.6h25.6v25.6h-81.067v-25.6h25.6v-89.6h29.867zM93.866 202.667h29.867v-110.933h-29.867v110.933zM234.666 134.4v0l-55.467 68.267h-34.133v-110.933h29.867v68.267l55.467-68.267h29.867v110.933h-25.6v-68.267zM337.066 160h-8.533c-4.267 0-12.8 4.267-12.8 12.8s8.533 8.533 12.8 8.533c8.533 0 12.8-4.267 21.333-8.533l12.8 21.333c-12.8 4.267-25.6 8.533-38.4 8.533-21.333 0-38.4-12.8-42.667-34.133 0 0 0-4.267 0-4.267 0-21.333 12.8-25.6 34.133-29.867 8.533 0 17.067-4.267 17.067-12.8s-8.533-12.8-12.8-12.8c-8.533 0-21.333 4.267-25.6 12.8l-12.8-25.6c12.8-8.533 25.6-12.8 42.667-12.8 12.8 0 21.333 4.267 34.133 8.533 8.533 8.533 12.8 17.067 12.8 29.867-4.267 25.6-17.067 34.133-34.133 38.4zM371.199 177.067h25.6v-89.6h29.867v89.6h25.6v25.6h-85.333v-25.6h4.267zM499.199 202.667l-46.933-110.933h34.133l8.533 21.333h42.667l8.533-21.333h34.133l-46.933 110.933h-34.133zM503.466 130.134l12.8 34.133 12.8-34.133h-25.6zM618.666 202.667h-29.867v-110.933h68.267v25.6h-38.4v85.333zM699.732 202.667h-29.867v-110.933h68.267v25.6h-34.133v85.333zM746.666 91.734h68.267v25.6h-38.4v21.333h34.133v25.6h-34.133v17.067h34.133v25.6h-68.267l4.267-115.2zM874.666 202.667h-42.667v-110.933h42.667c29.867 0 55.467 25.6 55.467 55.467 4.267 29.867-21.333 55.467-55.467 55.467 0 0 0 0 0 0zM870.399 113.067h-8.533v64h8.533c17.067 0 29.867-12.8 29.867-29.867s-12.8-29.867-29.867-34.133c0 4.267 0 4.267 0 0z" />
<glyph unicode="&#xe970;" glyph-name="gift_card" data-tags="gift_card" d="M853.333 567.466h-93.867c25.6 64-8.533 140.8-76.8 162.133-55.467 21.333-115.2 0-149.333-51.2l-21.333-25.6-21.333 29.867c-38.4 55.467-119.467 72.533-174.933 34.133-51.2-29.867-72.533-93.867-51.2-149.333h-93.867c-46.933 0-85.333-38.4-85.333-85.333 0 0 0 0 0 0v-469.333c0-46.933 38.4-85.333 85.333-85.333 0 0 0 0 0 0h682.667c46.933 0 85.333 38.4 85.333 85.333 0 0 0 0 0 0v469.333c0 46.933-38.4 85.333-85.333 85.333 0 0 0 0 0 0zM640 652.799c25.6 0 42.667-17.067 42.667-42.667s-17.067-42.667-42.667-42.667-42.667 17.067-42.667 42.667 17.067 42.667 42.667 42.667v0zM384 652.799c25.6 0 42.667-17.067 42.667-42.667s-17.067-42.667-42.667-42.667-42.667 17.067-42.667 42.667c0 0 0 0 0 0 0 21.333 17.067 42.667 42.667 42.667 0 0 0 0 0 0zM853.333 12.799h-682.667v85.333h682.667v-85.333zM853.333 226.132h-682.667v256h217.6l-89.6-119.467 68.267-51.2 102.4 136.533 42.667 59.733 42.667-59.733 102.4-136.533 68.267 51.2-89.6 119.467h217.6v-256z" />
<glyph unicode="&#xe971;" glyph-name="grid" data-tags="grid" horiz-adv-x="1210" d="M639.133 768h392.533v-388.267h-392.533v388.267zM178.333 768h392.533v-388.267h-392.533v388.267zM178.333 302.933h392.533v-388.267h-392.533v388.267zM639.133 302.933h392.533v-388.267h-392.533v388.267z" />
<glyph unicode="&#xe972;" glyph-name="grill" data-tags="grill" d="M827.734 57.599c-38.4 0-68.267-29.867-68.267-72.533 0-38.4 29.867-72.533 68.267-72.533s68.267 29.867 68.267 72.533c0 42.667-29.867 72.533-68.267 72.533v0zM371.201 770.133h281.6v-59.733h-281.6v59.733zM512.001 650.666c-196.267 0-358.4-98.133-384-230.4h768c-25.6 132.267-187.733 230.4-384 230.4zM512.001 130.133c196.267 0 358.4 98.133 384 230.4h-768c25.6-132.267 187.733-230.4 384-230.4v0zM738.134 134.399c-25.6-12.8-55.467-21.333-81.067-29.867l29.867-29.867h-349.867l29.867 29.867c-29.867 8.533-55.467 17.067-81.067 29.867l-157.867-162.133v-55.467h55.467l93.867 98.133h430.933c8.533 38.4 29.867 68.267 64 89.6l-34.133 29.867z" />
<glyph unicode="&#xe973;" glyph-name="growth_chart" data-tags="growth_chart" d="M938.667 72.533v-51.2h-853.333v640h51.2v-588.8h802.133zM887.467 588.799v-179.2c0-8.533-4.267-12.8-12.8-12.8-4.267 0-8.533 0-8.533 4.267l-55.467 51.2-264.533-264.533c-4.267-4.267-12.8-4.267-17.067 0 0 0 0 0 0 0l-98.133 98.133-174.933-174.933-81.067 81.067 243.2 243.2c4.267 4.267 12.8 4.267 17.067 0 0 0 0 0 0 0l98.133-98.133 192 192-42.667 51.2c-4.267 4.267-4.267 12.8 0 17.067s4.267 4.267 8.533 4.267h179.2c8.533 4.267 12.8-4.267 17.067-12.8 0 4.267 0 0 0 0z" />
<glyph unicode="&#xe974;" glyph-name="hammer" data-tags="hammer" d="M627.2 379.733l-422.4-443.733-119.467 115.2 448 418.133 93.867-89.6zM857.6 307.2c-12.8-12.8-38.4-12.8-55.467 0l-17.067 17.067c-12.8 8.533-17.067 25.6-8.533 38.4 12.8 8.533 8.533 29.867-12.8 51.2-29.867 29.867-72.533 29.867-85.333 17.067-8.533-4.267-25.6-25.6-25.6-25.6l-98.133 85.333 17.067 12.8c0 0 4.267 4.267 12.8 12.8 17.067 17.067 17.067 42.667 0 59.733-55.467 46.933-128 76.8-204.8 76.8v34.133c234.667 59.733 324.267-42.667 358.4-72.533l68.267-68.267c17.067-17.067 0-64 25.6-89.6 8.533-8.533 21.333-12.8 38.4-12.8 12.8 8.533 34.133 8.533 42.667-4.267l12.8-12.8c12.8-12.8 12.8-34.133 0-46.933 0 0 0 0 0 0l-68.267-72.533z" />
<glyph unicode="&#xe975;" glyph-name="hand_saw" data-tags="hand_saw" horiz-adv-x="953" d="M732.502 768l-430.933-448-17.067 17.067-192-196.267 46.933-51.2 42.667 42.667 123.733-128-42.667-42.667 51.2-46.933 123.733 128v29.867l46.933-8.533-12.8 51.2 42.667-12.8-12.8 51.2 46.933-12.8-12.8 59.733 42.667-12.8-17.067 59.733 46.933-12.8-12.8 55.467 46.933-12.8-12.8 55.467 46.933-12.8-12.8 55.467 42.667-12.8-12.8 55.467 46.933-12.8-12.8 55.467 42.667-12.8-12.8 51.2 46.933-12.8-12.8 55.467 46.933-12.8-25.6 68.267v4.267l46.933-12.8-12.8 55.467 4.267 4.267zM357.035 59.733l-123.733 128 42.667 42.667 123.733-128-42.667-42.667z" />
<glyph unicode="&#xe976;" glyph-name="hd_card" data-tags="hd_card" d="M915.201 661.334c-12.8 12.8-29.867 21.333-51.2 21.333h-708.267c-21.333 0-38.4-8.533-51.2-21.333s-21.333-29.867-21.333-51.2v-541.867c0-17.067 8.533-38.4 21.333-51.2 12.8-8.533 29.867-17.067 51.2-17.067h712.533c17.067 0 38.4 8.533 51.2 21.333s21.333 29.867 21.333 51.2v537.6c-4.267 21.333-12.8 38.4-25.6 51.2zM876.801 89.601c0-12.8-12.8-25.6-25.6-25.6h-682.667c-12.8 0-25.6 12.8-25.6 25.6v494.933c0 12.8 12.8 25.6 25.6 25.6h682.667c12.8 0 25.6-12.8 25.6-25.6v-494.933zM198.401 115.201v55.467h110.933v-55.467h-110.933zM369.068 115.201v55.467h170.667v-55.467h-170.667zM275.201 512.001h85.333v-81.067h55.467v81.067h85.333v-238.933h-85.333v81.067h-55.467v-81.067h-85.333v238.933zM535.468 512.001h89.6c81.067 0 145.067-34.133 145.067-123.733 4.267-59.733-46.933-115.2-106.667-115.2-4.267 0-8.533 0-12.8 0h-110.933v238.933zM625.068 341.334h4.267c29.867 0 51.2 12.8 51.2 42.667s-21.333 46.933-51.2 46.933h-4.267v-89.6z" />
<glyph unicode="&#xe977;" glyph-name="heart" data-tags="heart" d="M512 575.999c0 0-59.733 128-196.267 128-149.333 0-230.4-128-230.4-251.733 0-209.067 426.667-473.6 426.667-473.6s426.667 260.267 426.667 473.6c0 128-81.067 251.733-226.133 251.733-85.333 0-166.4-51.2-200.533-128z" />
<glyph unicode="&#xe978;" glyph-name="help_full" data-tags="help_full" d="M512 768c-234.667 0-426.667-192-426.667-426.667s192-426.667 426.667-426.667 426.667 192 426.667 426.667-192 426.667-426.667 426.667v0zM554.667 42.666h-85.333v85.333h85.333v-85.333zM644.267 375.466l-38.4-38.4c-34.133-34.133-51.2-59.733-51.2-123.733h-85.333v21.333c0 46.933 17.067 89.6 51.2 119.467l51.2 51.2c17.067 17.067 25.6 38.4 25.6 64 0 46.933-38.4 85.333-85.333 85.333s-85.333-38.4-85.333-85.333h-85.333c0 93.867 76.8 170.667 170.667 170.667s170.667-76.8 170.667-170.667c0-38.4-17.067-72.533-38.4-93.867v0z" />
<glyph unicode="&#xe979;" glyph-name="help_outline" data-tags="help_outline" d="M469.333 85.333h85.333v85.333h-85.333v-85.333zM512 768c-234.667 0-426.667-192-426.667-426.667s192-426.667 426.667-426.667 426.667 192 426.667 426.667-192 426.667-426.667 426.667zM512 0c-187.733 0-341.333 153.6-341.333 341.333s153.6 341.333 341.333 341.333 341.333-153.6 341.333-341.333c0 0 0 0 0 0 0-187.733-153.6-341.333-341.333-341.333zM512 597.333c-93.867 0-170.667-76.8-170.667-170.667h85.333c0 46.933 38.4 85.333 85.333 85.333s85.333-38.4 85.333-85.333c0-85.333-128-76.8-128-213.333h85.333c0 98.133 128 106.667 128 213.333 0 93.867-76.8 170.667-170.667 170.667v0z" />
<glyph unicode="&#xe97a;" glyph-name="holiday_light_1" data-tags="holiday_light_1" horiz-adv-x="737" d="M283.167 418.133h59.733v-55.467l-149.333-149.333 42.667-38.4 106.667 106.667v-128h55.467v123.733l102.4-102.4 38.4 38.4-140.8 145.067v59.733h64l149.333-145.067 42.667 42.667-106.667 106.667h132.267v55.467h-128l102.4 102.4-25.6 17.067-21.333 21.333-145.067-145.067h-68.267v72.533l140.8 145.067-42.667 42.667-102.4-102.4v136.533h-55.467v-145.067l-102.4 106.667-38.4-42.667 145.067-149.333v-64h-59.733l-145.067 145.067-21.333-17.067-21.333-21.333 102.4-102.4h-136.533v-55.467h140.8l-106.667-106.667 42.667-42.667 149.333 145.067zM415.434 68.266h-89.6c-17.067 0-38.4 4.267-55.467 12.8v-166.4h200.533v166.4c-21.333-8.533-38.4-12.8-55.467-12.8v0z" />
<glyph unicode="&#xe97b;" glyph-name="holiday_light_2" data-tags="holiday_light_2" horiz-adv-x="549" d="M283.035 127.999c166.4 0 260.267 166.4 213.333 307.2-51.2 140.8-123.733 337.067-213.333 337.067s-149.333-183.467-213.333-337.067 46.933-307.2 213.333-307.2zM449.435 413.866c29.867-110.933-38.4-221.867-132.267-221.867-12.8 0-25.6 4.267-34.133 4.267 72.533 25.6-4.267 512 25.6 512 29.867 4.267 110.933-183.467 140.8-294.4zM351.301-25.601h64c17.067 0 29.867 12.8 29.867 29.867 0 0 0 0 0 0v149.333c-46.933-42.667-102.4-64-166.4-64s-123.733 25.6-170.667 68.267v-153.6c0-17.067 12.8-29.867 29.867-29.867h64c12.8-38.4 55.467-64 93.867-51.2 29.867 4.267 51.2 25.6 55.467 51.2v0z" />
<glyph unicode="&#xe97c;" glyph-name="holiday_light_3" data-tags="holiday_light_3" horiz-adv-x="562" d="M281.001 699.733c-93.867 0-166.4-72.533-166.4-166.4s72.533-166.4 166.4-166.4 166.4 72.533 166.4 166.4c0 34.133-12.8 68.267-29.867 98.133v0c-29.867 42.667-81.067 68.267-136.533 68.267zM281.001 298.666c-128 0-234.667 106.667-234.667 234.667s106.667 234.667 234.667 234.667c128 0 234.667-106.667 234.667-234.667v0c0-128-102.4-234.667-234.667-234.667 4.267 0 0 0 0 0v0zM366.334 174.933h-166.4l-4.267-4.267h-4.267l-93.867-81.067v-174.933h362.667v174.933l-93.867 85.333z" />
<glyph unicode="&#xe97d;" glyph-name="holiday_light_4" data-tags="holiday_light_4" horiz-adv-x="452" d="M319.867 657.066v0-294.4h-187.733v298.667c0 4.267 0 4.267 0 8.533 0 51.2 38.4 93.867 93.867 98.133 55.467-4.267 93.867-46.933 93.867-102.4 0 0 0-4.267 0-8.533zM98 187.733l-64-89.6v-183.467h384v183.467l-59.733 89.6v85.333h-260.267v-85.333z" />
<glyph unicode="&#xe97e;" glyph-name="holiday_light_5" data-tags="holiday_light_5" horiz-adv-x="520" d="M388.002 354.133h-251.733l-12.8-12.8-76.8-59.733v-366.933h426.667v366.933l-85.333 72.533zM392.269 729.6l-85.333 38.4h-89.6l-93.867-38.4v-221.867h268.8v221.867z" />
<glyph unicode="&#xe97f;" glyph-name="holiday_shipping" data-tags="holiday_shipping" d="M174.933 360.533v-81.067h29.867v-68.267h-29.867v-106.667h55.467c12.8 64 72.533 106.667 136.533 98.133 51.2-8.533 89.6-46.933 93.867-93.867 0-4.267 0-12.8 0-17.067s0-8.533 0-12.8h59.733v281.6h-345.6zM836.267 360.533l-34.133 209.067h-209.067v-490.667h59.733c0 4.267 0 8.533 0 12.8s0 12.8 0 17.067c8.533 64 68.267 106.667 132.267 98.133 46.933-8.533 85.333-42.667 93.867-85.333h59.733v221.867l-102.4 17.067zM763.733 160c-38.4 0-68.267-29.867-68.267-68.267s29.867-68.267 68.267-68.267 68.267 29.867 68.267 68.267v0c4.267 34.133-29.867 68.267-68.267 68.267 0 0 0 0 0 0v0zM349.867 160c-38.4 0-68.267-29.867-68.267-68.267s29.867-68.267 68.267-68.267 68.267 29.867 68.267 68.267c0 0 0 0 0 0 0 34.133-29.867 68.267-68.267 68.267 0 0 0 0 0 0v0zM256 544l-17.067 76.8-153.6 38.4 89.6-128 81.067 12.8zM494.933 416l-85.333 55.467 64 89.6-174.933 42.667 21.333-110.933-110.933-17.067 38.4-59.733h247.467z" />
<glyph unicode="&#xe980;" glyph-name="home" data-tags="home" d="M426.667-21.333v256h170.667v-256h213.333v341.333h128l-426.667 384-426.667-384h128v-341.333z" />
<glyph unicode="&#xe981;" glyph-name="homedepot" data-tags="homedepot" d="M25.602 13.654c-10.24 10.24-10.24 15.36-25.6 5.12v-189.44h194.559c5.12 15.36 5.12 15.36-5.12 25.6l-163.839 158.72zM988.159 720.212c0-5.12 0-5.12 0 0l35.84-40.959v174.080h-179.199l35.84-35.84c0 0 5.12-10.24 0-15.36s-10.24-5.12-15.36 0c-30.72 15.36-66.56 15.36-92.16-5.12l-15.36 15.36 40.959 40.959h-798.718v-798.718l71.679 71.679c0 0 10.24 10.24 20.48 0 5.12-5.12 5.12-10.24 0-15.36-5.12-15.36-5.12-15.36 5.12-25.6l163.839-153.6c10.24-10.24 10.24-15.36 25.6-5.12 5.12 5.12 10.24 5.12 15.36 0 10.24-10.24 0-20.48 0-20.48l-76.8-76.8h291.839v5.12c0 5.12 0 10.24-5.12 10.24l-87.039 87.039c0 0-5.12 5.12-10.24 5.12s-10.24-5.12-10.24 0 0 10.24 5.12 10.24l40.959 40.959 128-128-40.959-30.72h486.398v486.398l-40.959-40.959c0 0-5.12-5.12-10.24 0 0 0 0 5.12 0 10.24 5.12 10.24 5.12 10.24-5.12 15.36l-107.52 107.52 40.959 40.959 107.52-107.52c5.12-5.12 5.12-5.12 15.36-5.12v291.839l-46.080-40.959-15.36 15.36c20.48 25.6 25.6 66.56 5.12 97.28 0 5.12-5.12 15.36 0 20.48 5.12 0 15.36 0 20.48 0zM849.919 776.532c10.24 10.24 20.48-5.12 20.48-5.12l61.44-61.44c0 0 15.36-10.24 5.12-20.48s-15.36-5.12-20.48 0c-10.24 5.12-30.72 10.24-46.080 0l-20.48 20.48c5.12 15.36 5.12 35.84-5.12 46.080 0 5.12 0 15.36 5.12 20.48zM629.759 684.372c0 0 10.24 10.24 20.48 0 5.12-5.12 5.12-10.24 0-15.36-5.12-15.36-5.12-15.36 5.12-25.6l158.72-158.72c10.24-10.24 10.24-15.36 25.6-5.12 5.12 5.12 10.24 5.12 15.36 0 10.24-10.24 0-20.48 0-20.48l-87.039-87.039c0 0-10.24-10.24-20.48 0-5.12 5.12-5.12 10.24 0 15.36 5.12 15.36 5.12 15.36-5.12 25.6l-143.36 138.24 122.88-225.279-10.24-10.24-250.88 122.88c-5.12 5.12-10.24 5.12-20.48 10.24-5.12 0-10.24 5.12-15.36 0s-10.24-10.24-15.36-5.12c-10.24 10.24 0 20.48 0 25.6l76.8 76.8 128-61.44-61.44 122.88 76.8 76.8zM624.64 85.334c0 5.12-5.12 5.12 0 10.24s10.24 0 10.24-5.12l35.84-35.84c0 0 10.24-5.12 5.12-10.24s-5.12 0-10.24 0-20.48 5.12-25.6 5.12l-10.24 10.24c0 10.24 0 20.48-5.12 25.6zM640 110.934v0c-5.12 0-5.12 0-10.24 0-15.36 10.24-35.84 10.24-51.2-5.12l-10.24 10.24 35.84 35.84 35.84-35.84c0 5.12 5.12 0 0-5.12zM517.12 187.733v0l-158.72 158.72c-10.24 10.24-25.6 15.36-35.84 5.12l-15.36 15.36c71.679 56.319 153.6 35.84 209.919-25.6s81.92-143.36 25.6-209.919l-15.36 15.36c0 15.36 0 30.72-10.24 40.959zM604.16 300.374v0l-102.399 102.399 66.56-30.72 51.2-51.2c40.959-30.72 51.2 0 61.44-15.36 15.36-15.36-5.12-20.48-5.12-25.6l-35.84-35.84c-5.12-5.12-15.36-15.36-25.6-5.12s20.48 20.48-10.24 61.44zM486.4 653.653c0 5.12-5.12 5.12 0 10.24 0 5.12 5.12 5.12 10.24 0 0 0 0 0 0 0l30.72-30.72-35.84-35.84-10.24 10.24c10.24 15.36 15.36 30.72 5.12 46.080zM471.041 648.532c-5.12 0-5.12 0-10.24 0-5.12 5.12-15.36 5.12-25.6 5.12l-10.24 10.24c5.12 10.24 5.12 20.48-5.12 25.6 0 5.12-5.12 5.12 0 10.24s10.24 0 10.24-5.12l35.84-30.72c5.12-5.12 10.24-10.24 5.12-15.36zM409.601 750.931l30.72-30.72c0 0 5.12-5.12 0-10.24s-5.12 0-10.24 0c-15.36 10.24-35.84 10.24-51.2-5.12l-5.12 10.24 35.84 35.84zM322.56 663.892l40.959 40.959 117.759-117.759-35.84-40.959c0 0-5.12-5.12-10.24 0 0 0 0 5.12 0 5.12 5.12 5.12 0 10.24-5.12 15.36l-87.039 87.039c-5.12 5.12-5.12 5.12-10.24 0 0 0-5.12 0-10.24 0-5.12 5.12 0 10.24 0 10.24zM261.12 607.573l46.080 40.959c0 0 5.12 5.12 10.24 0 0 0 0-5.12 0-5.12-5.12-5.12 0-10.24 5.12-15.36l81.92-81.92c5.12-5.12 5.12-5.12 15.36-5.12 0 0 5.12 0 5.12 0 5.12-5.12 0-10.24 0-10.24l-40.959-46.080c0 0-5.12-5.12-10.24 0 0 0 0 5.12 0 5.12 5.12 5.12 5.12 10.24-5.12 15.36l-40.959 40.959-10.24-15.36-10.24 10.24 15.36 15.36-40.959 35.84c-5.12 5.12-5.12 5.12-10.24 0 0 0-5.12 0-10.24 0-5.12 5.12 0 15.36 0 15.36zM204.801 546.133l46.080 46.080c0 0 5.12 5.12 10.24 0 0 0 0-5.12 0-10.24-5.12-5.12-5.12-5.12 0-10.24l81.92-81.92c10.24-10.24 10.24-10.24 15.36-5.12 0 0 5.12 0 10.24 0 5.12-5.12 0-10.24 0-10.24l-46.080-46.080c0 0-5.12-5.12-10.24 0 0 0 0 5.12 0 10.24 5.12 5.12 0 5.12-5.12 10.24l-81.92 81.92c-5.12 5.12-10.24 5.12-15.36 5.12 0 0-5.12 0-5.12 0-10.24 5.12 0 10.24 0 10.24zM194.561 535.892l35.84-35.84c5.12 0 5.12-5.12 0-10.24 0 0 0 0 0 0-5.12-5.12-10.24 0-15.36 0-10.24 10.24-25.6 10.24-35.84 10.24l-10.24 10.24 25.6 25.6zM163.841 505.172l102.399-102.399c5.12-5.12 5.12-5.12 15.36-5.12 0 0 5.12 0 10.24 0 5.12-5.12 0-10.24 0-10.24l-51.2-46.080c0 0-5.12-5.12-10.24 0 0 0 0 5.12 0 10.24 5.12 5.12 5.12 10.24-5.12 15.36l-102.399 102.399 40.959 35.84zM92.161 433.493l20.48 20.48 10.24-10.24c0-15.36 5.12-25.6 10.24-35.84 5.12-5.12 5.12-10.24 0-15.36 0-5.12-5.12-5.12-10.24 0 0 0 0 0 0 0l-30.72 40.959zM414.72 18.774v0l-87.039-87.039c0 0-10.24-10.24-20.48 0-5.12 5.12-5.12 10.24 0 15.36 5.12 15.36 5.12 15.36-5.12 25.6l-71.679 71.679-25.6-25.6-20.48 15.36 25.6 25.6-66.56 66.56c-10.24 10.24-10.24 15.36-25.6 5.12-5.12 0-15.36 0-15.36 5.12-10.24 10.24 0 20.48 0 20.48l87.039 81.92c0 0 10.24 10.24 20.48 0 5.12-5.12 5.12-10.24 0-15.36-5.12-15.36-5.12-15.36 5.12-25.6l158.72-158.72c10.24-10.24 10.24-15.36 25.6-5.12 5.12 5.12 10.24 5.12 15.36 0 10.24-5.12 0-15.36 0-15.36zM312.321 146.774v0c-56.319 61.44-81.92 143.36-25.6 209.919l20.48-20.48c-5.12-10.24-5.12-25.6 5.12-35.84l158.72-158.72c10.24-10.24 25.6-15.36 35.84-5.12l15.36-15.36c-66.56-61.44-148.479-35.84-209.919 25.6zM588.8-119.466c0 0-5.12-5.12-5.12-5.12v0l-10.24 10.24c10.24 10.24 0 20.48-5.12 30.72l-76.8 66.56c-5.12 5.12-15.36 15.36-30.72 5.12l-10.24 10.24c30.72 30.72 71.679 30.72 117.759-10.24 40.959-20.48 46.080-71.679 20.48-107.52zM645.119-63.146c0 0-5.12-5.12-10.24 0 0 0 0 5.12 0 10.24 5.12 5.12 5.12 10.24-5.12 15.36l-92.16 87.039c-5.12 5.12-5.12 5.12-15.36 5.12 0 0-5.12 0-10.24 0-5.12 5.12 0 10.24 0 10.24l46.080 46.080 128-128-40.959-46.080zM696.319-11.946l-10.24 10.24c10.24 15.36 15.36 35.84 5.12 56.319 0 5.12-5.12 5.12 0 10.24 0 5.12 5.12 5.12 10.24 0 0 0 0 0 0 0l30.72-35.84-35.84-40.959zM798.719 90.453v0l-46.080-51.2c-5.12-5.12-5.12-5.12-10.24 0 0 0 0 0 0 0s0 5.12 0 10.24c5.12 10.24 0 10.24-5.12 15.36l-92.16 92.16c-5.12 5.12-5.12 5.12-15.36 5.12 0 0-5.12 0-10.24 0-5.12 5.12 0 10.24 0 10.24l46.080 46.080 107.52-107.52c5.12-5.12 5.12-5.12 15.36-5.12 0 0 5.12 0 10.24 0 5.12-10.24 0-15.36 0-15.36zM788.479 203.093c0 0-5.12 0 0 0v0c-5.12 5.12-5.12 5.12-10.24 10.24 5.12-10.24 5.12-20.48 0-30.72-5.12-15.36-15.36-30.72-25.6-40.959l-10.24 10.24c10.24 10.24 0 20.48-5.12 25.6l-25.6 25.6c-5.12 10.24-15.36 15.36-25.6 5.12l-10.24 10.24c10.24 10.24 25.6 20.48 40.959 25.6 20.48 5.12 35.84 0 51.2-15.36-15.36 30.72-15.36 66.56 10.24 92.16l10.24-10.24c-5.12-5.12-5.12-15.36 5.12-20.48l87.039-87.039c5.12-5.12 15.36-10.24 20.48-5.12l10.24-10.24c-40.959-25.6-97.28-20.48-122.88 15.36zM972.799-88.746c15.36 0 30.72-15.36 30.72-30.72s-15.36-30.72-30.72-30.72c-15.36 0-30.72 15.36-30.72 30.72s15.36 30.72 30.72 30.72zM860.159 387.413c0-15.36 5.12-30.72 15.36-40.959 5.12-5.12 5.12-10.24 0-15.36 5.12-5.12 15.36-10.24 20.48-15.36 35.84-30.72 40.959-81.92 15.36-117.759l-10.24 10.24c5.12 5.12 5.12 15.36-5.12 20.48l-87.039 87.039c-5.12 5.12-15.36 10.24-20.48 5.12l-10.24 10.24c20.48 20.48 51.2 25.6 76.8 15.36l-30.72 25.6 25.6 25.6 10.24-10.24zM972.799 428.372c0 0 0 0 0 0-5.12-5.12-10.24 0-15.36 0-10.24 10.24-25.6 15.36-35.84 15.36l-10.24 10.24 25.6 25.6 40.959-40.959c0 0 0-5.12-5.12-10.24zM967.678 571.732l-81.92-81.92c0 0-10.24-10.24-20.48 0-5.12 5.12-5.12 10.24 0 15.36 5.12 15.36 5.12 15.36-5.12 25.6l-158.72 158.72c-10.24 10.24-10.24 15.36-25.6 5.12-5.12-5.12-10.24-5.12-15.36 0-10.24 10.24 0 20.48 0 20.48l81.92 81.92 225.279-225.279zM972.799-145.065c15.36 0 25.6 10.24 25.6 25.6s-10.24 25.6-25.6 25.6c-15.36 0-25.6-10.24-25.6-25.6s15.36-25.6 25.6-25.6zM967.678-104.106h5.12c5.12 0 10.24 0 10.24-5.12 0 0 5.12-5.12 5.12-5.12s0-5.12 0-5.12-5.12-5.12-5.12-5.12l10.24-15.36h-5.12l-15.36 15.36v-15.36h-5.12v35.84zM983.038-114.345c0 5.12 0 5.12-5.12 5.12v0-10.24c0 0 5.12 0 5.12 5.12z" />
<glyph unicode="&#xe982;" glyph-name="info_full" data-tags="info_full" d="M512 768c-234.667 0-426.667-192-426.667-426.667s192-426.667 426.667-426.667 426.667 192 426.667 426.667-192 426.667-426.667 426.667zM554.667 123.733h-85.333v260.267h85.333v-260.267zM554.667 469.333h-85.333v85.333h85.333v-85.333z" />
<glyph unicode="&#xe983;" glyph-name="info_outline" data-tags="info_outline" d="M469.333 128h85.333v256h-85.333v-256zM512 768c-234.667 0-426.667-192-426.667-426.667s192-426.667 426.667-426.667 426.667 192 426.667 426.667-192 426.667-426.667 426.667v0zM512 0c-187.733 0-341.333 153.6-341.333 341.333s153.6 341.333 341.333 341.333 341.333-153.6 341.333-341.333-153.6-341.333-341.333-341.333v0zM469.333 469.333h85.333v85.333h-85.333v-85.333z" />
<glyph unicode="&#xe984;" glyph-name="insect" data-tags="insect" horiz-adv-x="1022" d="M442.734 486.4l-42.667-4.267-34.133 145.067-140.8 140.8-42.667-38.4 128-128 29.867-123.733-170.667-25.6c-55.467-8.533-98.133-59.733-93.867-119.467s59.733-102.4 119.467-98.133c17.067 0 29.867 8.533 42.667 12.8 51.2 29.867 102.4 59.733 153.6 98.133l-55.467-85.333-187.733-187.733 42.667-38.4 192 196.267 21.333 25.6v-55.467l-93.867-264.533 55.467-21.333 85.333 251.733c17.067-25.6 51.2-34.133 76.8-17.067 12.8 8.533 21.333 21.333 25.6 34.133l93.867-268.8 55.467 17.067-89.6 264.533v59.733l21.333-34.133 192-196.267 42.667 38.4-187.733 187.733-46.933 76.8c59.733-42.667 123.733-76.8 136.533-85.333 51.2-29.867 119.467-12.8 149.333 38.4s12.8 119.467-38.4 149.333c-12.8 8.533-25.6 12.8-42.667 12.8v0l-170.667 25.6 21.333 128 128 128-38.4 42.667-140.8-140.8-38.4-145.067-46.933 8.533v93.867h-25.6v132.267h-59.733v-132.267h-25.6v-98.133z" />
</font>
</defs>
</svg>
